<?xml version="1.0" encoding="UTF-8"?><svg xmlns="http://www.w3.org/2000/svg" xmlns:xlink="http://www.w3.org/1999/xlink" version="1.1" id="Layer_1" x="0px" y="0px" viewBox="0 0 24 24" xml:space="preserve"><path fill="#F2F2F2" d="M22 1H2a1 1 0 0 0-1 1v17a2 2 0 0 0 2 2h15l5-5V2a1 1 0 0 0-1-1zM7 4.5a1.001 1.001 0 0 1 0-2 1.001 1.001 0 0 1 0 2zm10 0a1.001 1.001 0 0 1 0-2 1.001 1.001 0 0 1 0 2z"/><path opacity="0.05" d="M3 20.75a2 2 0 0 1-2-2V19a2 2 0 0 0 2 2h15v-.25H3z"/><path fill="#E83628" d="M22 1H2a1 1 0 0 0-1 1v4h22V2a1 1 0 0 0-1-1zM7 4.5a1.001 1.001 0 0 1 0-2 1.001 1.001 0 0 1 0 2zm10 0a1.001 1.001 0 0 1 0-2 1.001 1.001 0 0 1 0 2z"/><path opacity="0.1" d="M1 5.75h22V6H1z"/><path opacity="0.2" fill="#FFF" d="M22 1H2a1 1 0 0 0-1 1v.25a1 1 0 0 1 1-1h20a1 1 0 0 1 1 1V2a1 1 0 0 0-1-1z"/><path fill="#E83628" d="M23 16l-5 5v-3a2 2 0 0 1 2-2h3z"/><path opacity="0.2" fill="#FFF" d="M20 16.25h2.75L23 16h-3a2 2 0 0 0-2 2v.25a2 2 0 0 1 2-2z"/><linearGradient id="SVGID_1_" gradientUnits="userSpaceOnUse" x1="7.3450561" y1="1.3450561" x2="20.0118084" y2="14.0118084"><stop offset="0" stop-color="#000" stop-opacity="0.1"/><stop offset="1" stop-color="#000" stop-opacity="0"/></linearGradient><path fill="url(#SVGID_1_)" d="M18 21l5-5V6H1l15 15z"/><circle fill="#69B342" cx="17.5" cy="17.5" r="5.5"/><path opacity="0.1" d="M17.5 22.75a5.622 5.622 0 0 1-5.263-3.654 5.5 5.5 0 0 0 10.526 0A5.622 5.622 0 0 1 17.5 22.75z"/><path opacity="0.2" fill="#FFF" d="M17.5 12.25a5.622 5.622 0 0 1 5.263 3.654 5.5 5.5 0 0 0-10.526 0A5.622 5.622 0 0 1 17.5 12.25z"/><path fill="#FFF" d="M20 17h-2v-2h-1v2h-2v1h2v2h1v-2h2z"/><linearGradient id="SVGID_2_" gradientUnits="userSpaceOnUse" x1="16.758131" y1="16.758131" x2="20.6273174" y2="20.6273174"><stop offset="0" stop-color="#000" stop-opacity="0.1"/><stop offset="1" stop-color="#000" stop-opacity="0"/></linearGradient><path fill="url(#SVGID_2_)" d="M15 18l2 2v-2h-2zm3-1h2l-2-2v2zm2 0v1h-2v2h-1l2.587 2.587a5.515 5.515 0 0 0 3-3L20 17z"/><linearGradient id="SVGID_3_" gradientUnits="userSpaceOnUse" x1="-0.4982115" y1="4.9906478" x2="24.0626411" y2="16.4435616"><stop offset="0" stop-color="#FFF" stop-opacity="0.2"/><stop offset="1" stop-color="#FFF" stop-opacity="0"/></linearGradient><path fill="url(#SVGID_3_)" d="M23 2a1 1 0 0 0-1-1H2a1 1 0 0 0-1 1v17a2 2 0 0 0 2 2h10.257A5.5 5.5 0 0 0 23 17.5c0-.46-.063-.904-.169-1.331L23 16V2zm-6 .5a1.001 1.001 0 1 1-1 1c0-.551.448-1 1-1zm-10 2a1.001 1.001 0 0 1 0-2 1.001 1.001 0 0 1 0 2z"/><metadata><rdf:RDF xmlns:rdf="http://www.w3.org/1999/02/22-rdf-syntax-ns#" xmlns:rdfs="http://www.w3.org/2000/01/rdf-schema#" xmlns:dc="http://purl.org/dc/elements/1.1/"><rdf:Description about="https://iconscout.com/legal#licenses" dc:title="time,event,calendar,add,create" dc:description="time,event,calendar,add,create" dc:publisher="Iconscout" dc:date="2017-11-13" dc:format="image/svg+xml" dc:language="en"><dc:creator><rdf:Bag><rdf:li>Those Icons</rdf:li></rdf:Bag></dc:creator></rdf:Description></rdf:RDF></metadata></svg>