<?xml version="1.0" encoding="utf-8"?>
<!-- Generator: Adobe Illustrator 24.0.0, SVG Export Plug-In . SVG Version: 6.00 Build 0)  -->
<svg version="1.1" xmlns="http://www.w3.org/2000/svg" xmlns:xlink="http://www.w3.org/1999/xlink" x="0px" y="0px"
	 viewBox="0 0 1920 1080" style="enable-background:new 0 0 1920 1080;" xml:space="preserve">
<style type="text/css">
	.st0{fill:#415DAA;}
	.st1{display:none;}
	.st2{display:inline;}
	.st3{fill:#9B1C1F;}
	.st4{display:inline;fill:#D04D48;}
	.st5{opacity:0.75;fill:#E08A4F;enable-background:new    ;}
	.st6{fill:#CA534D;}
	.st7{fill:#FBCAA9;}
	.st8{fill:#414042;}
	.st9{opacity:0.72;fill:#FFFFFF;enable-background:new    ;}
	.st10{opacity:0.33;fill:#58595B;enable-background:new    ;}
	.st11{fill:#F2802D;}
	.st12{fill:#EAA16E;}
	.st13{fill:#42A5A8;}
	.st14{fill:#433E52;}
</style>
<g id="Layer_1">
	<g id="Layer_2_1_">
		<g>
			
				<image style="overflow:visible;opacity:0.2;enable-background:new    ;" width="8758" height="3367" xlink:href="ED8A7631.png"  transform="matrix(0.2394 0 0 0.2394 -81.3829 -83.04)">
			</image>
			<g>
				<rect class="st0" width="1920" height="625.9"/>
			</g>
		</g>
		
			<image style="display:none;overflow:visible;enable-background:new    ;" width="1001" height="939" xlink:href="ED8A763C.jpeg"  transform="matrix(0.4627 0 0 0.4627 1345.9608 591.6447)">
		</image>
		<g class="st1">
			<g class="st2">
				<path class="st3" d="M1615.8,617.3c-1.1-1.2-1-4,1.2-3.7c2,0.2,0.9,2.8,0.3,3.8c-1,1.6-2.8,2.6-4.1,3.9
					c-1.4,1.4-2.5,3.1-2.6,5.2c0,1,1,1.6,1.9,1.5c2-0.3,4.1-0.5,6.1-0.1c1.6,0.3,3.5,0.9,4.2,2.4c0.9,2.2-0.8,4.3-2.7,5.2
					c-2.9,1.3-6.3,0.3-9.2-0.4c-1.9-0.5-2.7,2.4-0.8,2.9c3.8,1,8,2,11.7,0c2.9-1.5,5-4.7,4.1-8c-1.5-5.8-9.4-5.7-14.1-4.9
					c0.6,0.5,1.3,1,1.9,1.5c0.1-2.8,3.4-4.3,5.1-6c1.8-1.9,3.3-5,2-7.5c-1.3-2.5-4.6-3-6.8-1.4c-2.6,1.9-2.3,5.7-0.3,7.9
					C1615,620.9,1617.1,618.7,1615.8,617.3L1615.8,617.3z"/>
			</g>
		</g>
		<g class="st1">
			<g class="st2">
				<path class="st3" d="M1630.5,599.5c-5.6-4-13-3.9-19.1-1.3c-6.7,2.8-11.4,8.6-14.2,15.2c-2.8,6.6-4.1,14.2-4.2,21.3
					c0,6.2,1,12.9,4.6,18c1.8,2.5,4.2,4.6,7,5.9c3.7,1.6,7.7,1.9,11.7,1.3c7.1-0.9,14.3-3.7,20.2-7.6c5.5-3.6,10.2-8.8,11.8-15.3
					c1.9-7.5-0.8-15.4-5.6-21.3c-4.9-6.1-11.9-10-19.1-12.9c-6.5-2.6-14.4-4.5-21.1-1.8c-1.6,0.7-3.1,1.5-4.4,2.6
					c-1.5,1.2,0.6,3.3,2.1,2.1c5.2-4.2,12.4-3.4,18.3-1.6c6.5,2,13.1,5.2,18.3,9.7c5.2,4.6,9.2,11.1,9.1,18.2c0,6.2-3.4,11.5-8,15.4
					c-4.7,4-10.6,6.6-16.4,8.3c-6.4,1.8-13.9,2.6-19.2-2.2c-4.1-3.8-5.8-9.6-6.2-15c-0.5-6.2,0.3-12.6,1.9-18.7
					c1.7-6.3,4.8-12.7,10.1-16.6c4.7-3.5,11.1-5.2,16.8-3.4c1.4,0.5,2.7,1.2,3.9,2C1630.6,603.2,1632.1,600.6,1630.5,599.5
					L1630.5,599.5z"/>
			</g>
		</g>
		<g class="st1">
			<g class="st2">
				<path class="st3" d="M1516.3,578.6c0-1.3,0-2.5-0.1-3.8c0-0.8-0.7-1.5-1.5-1.5c-5,0.1-9.4,2.5-12.9,5.8c-3.4,3.1-6.4,7-8.3,11.2
					c-1.7,3.9-2.7,8.6-0.6,12.5c2.3,4.2,7.2,5.3,11.7,4.9c2.9-0.3,5.8-1,8.7-1.6c3.5-0.8,6.9-1.6,10.4-2.5c1.9-0.5,1.1-3.4-0.8-2.9
					c-5.1,1.3-10.1,2.5-15.3,3.5c-3.6,0.7-8.3,1.3-11.1-1.7c-2.5-2.7-1.8-6.8-0.7-9.9c1.4-3.8,3.9-7.1,6.7-10
					c3.3-3.4,7.4-6.3,12.2-6.4c-0.5-0.5-1-1-1.5-1.5c0,1.3,0,2.5,0.1,3.8C1513.3,580.5,1516.3,580.5,1516.3,578.6L1516.3,578.6z"/>
			</g>
		</g>
		<g class="st1">
			<g class="st2">
				<path class="st3" d="M1525.9,589c-0.9,2.3,0.6,4.7,2.7,5.7c2.2,1,4.7,0.1,5.9-2c2.6-4.3-1.1-9.3-5.8-8.9
					c-2.1,0.1-4.1,1.1-5.2,2.9c-1.4,2.3-1,5.2,0.3,7.4c2.8,4.7,9.2,6.2,14.1,4.2c5.6-2.3,8.4-8.8,6.5-14.5c-0.4-1.4-2.5-1.5-2.9,0
					c-0.8,2.6-1.5,5.2-2.2,7.7c1,0.1,2,0.3,2.9,0.4c0.4-3.4,2.3-7.7,6-8.5c1.5-0.3,3.1,0,4.3,0.8c0.6,0.4,1.1,0.9,1.4,1.5
					c0.1,0.1,0.1,0.3,0.2,0.4c0,0.1,0.1,0.2,0.1,0.3c0,0.2,0.1,0.2,0.1,0c-0.4-0.3,0.2,0,0-0.1c0,0,0,0,0,0
					c-0.1,0.2,0.2,0.3,0.7,0.1c0.2,0.3,0.5,0.6,0.7,0.9c0,0.3-0.1,0.5-0.1,0.8c0.8-1.7-1.8-3.3-2.6-1.5c-0.6,1.4,0.1,2.9,1.8,2.7
					c1.3-0.2,2.5-1.3,2.6-2.7c0.1-2.9-2.8-5.2-5.4-6c-3-0.9-6.1-0.1-8.5,2c-2.6,2.3-3.9,5.8-4.2,9.2c-0.2,1.7,2.5,2,2.9,0.4
					c0.8-2.6,1.5-5.2,2.2-7.7c-1,0-1.9,0-2.9,0c1,3.1,0.3,6.7-2,9.1c-2.4,2.5-6.3,3.2-9.6,1.9c-2.5-1-5.9-4.7-3.8-7.5
					c1.3-1.8,4.9-1.8,5.9,0.3c0.6,1.2,0.3,3.1-1,3.7c-1.3,0.6-2.8-0.9-2.2-2.2C1529.5,588,1526.6,587.2,1525.9,589L1525.9,589z"/>
			</g>
		</g>
		<g class="st1">
			<g class="st2">
				<path class="st3" d="M1558.6,561c0.7,10,0.8,20.1,0.4,30.1c-0.1,1.9,2.9,1.9,3,0c0.4-10,0.3-20.1-0.4-30.1
					C1561.5,559.1,1558.5,559.1,1558.6,561L1558.6,561z"/>
			</g>
		</g>
		<g class="st1">
			<g class="st2">
				<path class="st3" d="M1560.2,577c4.2-3.8,9.7-5.8,15.3-5.6c-0.5-0.5-1-1-1.5-1.5c0,1.6-0.4,3-1.2,4.3c-0.6,0.9,0,1.8,0.9,2.2
					c3.8,1.6,8.6-1.1,9.1-5.2c0.5-4-3.6-8.8-7.8-7.3c-2.1,0.7-2.6,3-1.9,5c0.7,2,2.4,3.6,4.1,4.7c3.6,2.2,8.5,2.4,12.2,0.3
					c4.3-2.5,6.5-7.7,5.7-12.5c-0.8,0.5-1.7,1-2.5,1.5c2.8,2.4,5.5,4.8,8.3,7.2c1.8,1.6,5,5.5,7.6,2.9c0.9-1,1.2-2.5,1.5-3.8
					c0.3-1.7,0.6-3.4,0.8-5.1c0.4-3.5,0.4-6.9,0.2-10.4c-0.1-1.9-3.1-1.9-3,0c0.4,5.3,0.3,11.2-1.3,16.3c0,0.1-0.3,0.8-0.2,0.8
					c-0.2,0.1-1.4-1.2-1.7-1.4c-1.1-0.9-2.1-1.8-3.2-2.8c-2.3-2-4.5-3.9-6.8-5.9c-1.2-1-2.8,0-2.5,1.5c0.6,3.5-1.3,7.3-4.3,9.2
					c-3,1.8-6.9,1.4-9.8-0.6c-0.7-0.5-1.3-1-1.8-1.7c-0.3-0.4-0.9-1.4-0.6-2c0.3-0.5,1.4-0.1,1.8,0c0.8,0.3,1.4,1,1.8,1.7
					c1.8,3.2-1.8,6.2-4.9,4.8c0.3,0.7,0.6,1.5,0.9,2.2c1.1-1.8,1.6-3.7,1.6-5.8c0-0.8-0.7-1.5-1.5-1.5c-6.4-0.2-12.7,2.1-17.4,6.5
					C1556.7,576.2,1558.8,578.3,1560.2,577L1560.2,577z"/>
			</g>
		</g>
		<g class="st1">
			<g class="st2">
				<path class="st3" d="M1711.2,624.1c0.3-1.6,0.7-3.1,1.1-4.7c-1,0-1.9,0-2.9,0c2.6,11.4,3.1,23.2,1.3,34.7c1,0,1.9,0,2.9,0
					c-5.7-14.5-5.4-31.3,1.3-45.4c0.8-1.6,4.4-8.4,6.5-4.6c0.8,1.4,0.7,3.3,0.5,4.8c-0.2,1.8-0.8,3.5-1.4,5.2
					c-1.3,3.4-3.3,6.6-4.9,9.9c-1.4,2.9-4,7.5-1.3,10.5c1.3,1.4,3.2,1.8,5,2c2.5,0.4,5,0.7,7.5,1c5.2,0.5,10.3,0.8,15.5,0.8
					c1.9,0,1.9-3,0-3c-4.8,0-9.5-0.2-14.3-0.7c-2.5-0.2-5-0.5-7.4-0.9c-1.3-0.2-4-0.3-4.4-2c-0.2-0.9,0.3-2,0.6-2.9
					c0.3-1,0.7-1.9,1.2-2.8c0.8-1.8,1.8-3.5,2.7-5.2c1.7-3.4,3.5-6.9,4.1-10.6c0.5-3.2,0.7-7.7-2.5-9.6c-3.4-2-6.9,1.1-8.6,4
					c-2,3.4-3.5,7.3-4.6,11.1c-1.2,3.9-1.9,7.9-2.2,12c-0.8,9.2,0.5,18.6,3.9,27.2c0.5,1.2,2.6,1.6,2.9,0
					c1.8-12.1,1.4-24.4-1.3-36.3c-0.3-1.4-2.6-1.4-2.9,0c-0.3,1.6-0.7,3.1-1.1,4.7C1707.9,625.2,1710.8,626,1711.2,624.1
					L1711.2,624.1z"/>
			</g>
		</g>
		<g class="st1">
			<g class="st2">
				<path class="st3" d="M1744.3,621.2c0.4,8.8,0.7,17.5,1.1,26.3c0.1,1.9,3.1,1.9,3,0c-0.4-8.8-0.7-17.5-1.1-26.3
					C1747.2,619.3,1744.2,619.3,1744.3,621.2L1744.3,621.2z"/>
			</g>
		</g>
		<g class="st1">
			<g class="st2">
				<path class="st3" d="M1067.9,727.4c-0.9-0.4-1.6-1.5-1.1-2.5c-0.9-0.1-1.8-0.2-2.7-0.4c2,8.9,4,17.8,6,26.7c0.4,1.7,1,3.3,2.7,4
					c1.6,0.7,3.4,0.3,4.9-0.3c4.2-1.6,8.4-3.5,12.5-5.3c4.8-2,9.5-4,14.3-6c0.8-0.3,1.3-1,1.1-1.8c-0.2-0.7-1.1-1.4-1.8-1
					c-7.7,3.3-15.4,6.5-23.2,9.8c-1.6,0.7-3.3,1.6-5.1,2c-0.6,0.1-1.4,0.3-1.9-0.3c-0.5-0.5-0.6-1.6-0.7-2.3
					c-0.9-4.1-1.8-8.2-2.8-12.3c-1.1-4.7-2.1-9.3-3.1-14c-0.3-1.2-2.2-1.5-2.7-0.4c-1.1,2.4-0.3,5.4,2.2,6.6
					C1068.1,730.8,1069.6,728.2,1067.9,727.4L1067.9,727.4z"/>
			</g>
		</g>
		<g class="st1">
			<g class="st2">
				<path class="st3" d="M1094.2,728c-0.7-0.8-1.4-1.6-2.2-2.4c-1.1-1.3-3.4,0.4-2.4,1.8c3.3,4.6,6.7,9.2,10.1,13.7
					c0.8,1.1,1.6,2.3,2.4,3.3c0.8,0.9,2.1,1.5,3.3,0.8c2.3-1.5-0.7-5.3-2.5-2.8c-0.5,0.7-0.1,1.7,0.5,2c0.8,0.4,1.6,0.1,2.1-0.5
					c0,0,0.1-0.1,0.1-0.1c-0.2,0.2-0.4,0.4-0.5,0.5c0,0,0.1,0,0.1,0c-0.3,0.1-0.5,0.1-0.8,0.2c0,0,0.1,0,0.1,0
					c-0.3-0.1-0.5-0.1-0.8-0.2c-0.4-0.3-0.5-0.7-0.3-1.2c0.2-0.2,0.4-0.4,0.5-0.5c0,0,0,0,0,0c0.3,0,0.5,0,0.8,0
					c-0.5-0.1-1.1-1.2-1.4-1.6c-0.6-0.8-1.1-1.5-1.6-2.2c-1-1.4-2.1-2.8-3.1-4.2c-2.1-2.9-4.2-5.8-6.4-8.7c-0.8,0.6-1.6,1.2-2.4,1.8
					c0.7,0.8,1.4,1.6,2.2,2.4C1093.4,731.6,1095.5,729.5,1094.2,728L1094.2,728z"/>
			</g>
		</g>
		<g class="st1">
			<g class="st2">
				<path class="st3" d="M1068.2,725.8c1.8,5.2,3.4,10.4,4.8,15.7c0.7,2.7,1.3,5.3,1.9,8c0.4,2,0.8,4.1,2,5.8s3.1,2.4,5.1,1.6
					c1.2-0.5,2.3-1.2,3.4-1.9c1.2-0.7,2.4-1.4,3.7-2.1c4.9-2.9,9.9-5.8,14.8-8.7c2.6-1.5,5.5-2.9,7.9-4.7c1.8-1.3,3.3-3.7,1.4-5.6
					c-1.4-1.3-3.5,0.8-2.1,2.1c-0.1-0.1,0.2-0.5-0.1,0c-0.1,0.2-0.2,0.3-0.3,0.4c-0.3,0.3-0.6,0.5-0.9,0.8c-1,0.7-2.2,1.3-3.2,1.9
					c-2,1.2-4,2.3-6,3.5c-4.1,2.4-8.2,4.8-12.2,7.2c-2.1,1.2-4.2,2.4-6.2,3.7c-0.7,0.4-1.5,1-2.3,0.7c-0.6-0.3-0.9-1.1-1.1-1.6
					c-0.7-1.8-0.9-3.8-1.4-5.6c-0.5-2.3-1.1-4.5-1.7-6.8c-1.3-5.1-2.9-10.1-4.6-15C1070.4,723.2,1067.5,723.9,1068.2,725.8
					L1068.2,725.8z"/>
			</g>
		</g>
		<g class="st1">
			<g class="st2">
				<path class="st3" d="M875.2,804.3c-0.9-0.8-1.7-1.6-2.6-2.4c-0.3-0.3-0.7-0.4-1.1-0.4c-0.4,0-0.8,0.2-1.1,0.4
					c-0.3,0.3-0.5,0.7-0.4,1.1c0,0.4,0.2,0.8,0.4,1.1c0.9,0.8,1.7,1.6,2.6,2.4c0.3,0.3,0.7,0.4,1.1,0.4c0.4,0,0.8-0.2,1.1-0.4
					c0.3-0.3,0.5-0.7,0.4-1.1C875.6,805,875.5,804.6,875.2,804.3L875.2,804.3z"/>
			</g>
		</g>
	</g>
	<g id="Layer_1_1_" class="st1">
		
			<image style="display:inline;overflow:visible;enable-background:new    ;" width="261" height="281" xlink:href="ED8A763C.jpeg"  transform="matrix(0.9962 0 0 0.9962 1242.6454 271.5064)">
		</image>
		
			<image style="display:inline;overflow:visible;enable-background:new    ;" width="613" height="612" xlink:href="ED8A7644.jpeg"  transform="matrix(0.9984 0 0 0.9984 483.5325 468.4992)">
		</image>
	</g>
	<g id="Layer_5" class="st1">
	</g>
	<g id="Layer_3" class="st1">
		<path class="st4" d="M674.7,497.9c0,0-12.3,9.6-15.5,30.7c0,0-1.4,8.6,2.4,11.1c0,0,6.6,3.2,13-11.7l4.7-10.7
			c0,0,6.6,3.3,9.1,13.8c0,0,3.9,7.6,20.8,4.7c0,0,9.8-3.7,9.7-16.9c0,0-2.9-9-2.8-10s10,7.2,17.3,4.4c0,0,4.2-3,1.7-8.7
			c0,0-13.2-16-23.8-20c0,0-5.6-2.2-9.3,0.2c0,0-2.6,3.7-0.7,6.2c0,0,21.5,5.6,31.4,12.3L674.7,497.9z"/>
	</g>
	<g id="Layer_4" class="st1">
		<g class="st2">
			<path class="st5" d="M882.3,517.5c0,0,4.6-3.7,4.7-3.7c0.1,0,3.4,3.1,3.4,3.1l-0.7,1.3l-5.3,2.1c0,0-1.2-0.7-1.3-0.8
				c-0.1-0.1-0.7-1.3-0.7-1.3L882.3,517.5z"/>
			<path class="st6" d="M881.2,547.8L881.2,547.8c0.6-0.8,1.8-0.8,2.4,0c2.3,3.6,7.3,11.5,8,13.6c0,0.1,0.1,0.3,0.2,0.4
				c0.9,1.2,6.1,7.4,19.9,5c0,0,13.9-2.7,13-19.3c0-0.1,0-0.3-0.1-0.4c0,0-2-10.8-2.1-11c-1.1-1.3-9.5-9-17.6-12.8
				c-0.2-0.1-0.4-0.1-0.6-0.1l-1.7-0.5c-0.8,0-1.8,0.7-1.8,1.4l-0.1,0.7c-0.6,0-1.1,0.5-1,1.2l-0.3,0.3c-0.2,0.5-1.4,0.4-1.5,0.8
				c-0.2,1.5,0.2,2.9-2,4.2c-2.3,1.3-6.3,0-7.9-0.7c-0.4-0.2-2,0.7-2.4,0.9l-3.5,2.8c-0.3,0.1-0.5,1-0.6,1.3c-0.6,1.3-2,5.4-3,11
				C878.4,548.3,880.4,549.1,881.2,547.8z"/>
			<path class="st7" d="M859.8,561.1c0.4-0.7,10.6-18,16.9-23c0.1-0.1,0.2-0.2,0.2-0.3c0.2-1.1,1.4-7.4,2.3-15c0-0.3,0.1-0.7,0.3-1
				c0.5-1,1.6-3.5,2.9-3.9c0,0,2.4,0.1,1.2,1.8c-0.3,0.5-1.9,1-2,1.8c0,0.5,0.4,1.4,0.8,1.1c0.4-0.3,0.6-0.5,1.1-0.7
				c0.3-0.2,1,0,0.8,0.3c-0.5,1.3-1.2,3.8-0.2,6c1.3,3,4.9,2.4,5.2,2.3c0.2-0.1,5.1-1.3,8.5-3.2c0,0,4.5-1.5,0.7,5
				c-0.1,0.1-0.2,0.2-0.4,0.3c-1.2,0.2-9.8,2-10.3-2c0,0,0,0.8-0.3,0.9c-0.9,0.4-6.3,1.3-6.8,7.9c0,0-1.4,11.8-2.3,14.6
				c0,0-5.7,16-13,16.7c0,0-0.1,0-0.1,0C864.4,570.9,856,570.1,859.8,561.1C859.7,561.1,859.7,561.1,859.8,561.1z"/>
			<path class="st6" d="M859.5,562c0,0,2.9-29.1,18.4-37.8c0,0,2.3,0.8-1,13.7c0,0-12.8,14.5-17,24.2H859.5z"/>
			<path class="st6" d="M905.3,513.4c0,0,6.8-7.3,19.2,3c0,0,15,11.2,17.5,15.2c0,0-21.8-8.2-36.7-12
				C905.3,519.6,904,518.1,905.3,513.4z"/>
			<path class="st7" d="M905.8,519.3c-0.3-0.1,31.8,9.9,36.1,12.3c0,0,3.6,2.9,1.5,8.9c0,0-2.8,5.5-12.9,1.4
				c0,0-19.2-13.7-25.7-18.5c0,0-2,0.1-3.9,0.3c0,0-4.1-6.8-10.9-6.5c0,0-3.8,0.2-3.5-3c0,0,5-5.6,13.3,0.3c0,0,0.5,0.6,2.4,1.6
				C904.1,517.3,905.8,519.3,905.8,519.3z"/>
			<path class="st8" d="M883.8,522.2l-1.6,0.7c0,0-2.6-1.4,2.9-3.8c5.5-2.4,7.5-2.8,13.1,0.4c0,0,6,4.7,0.5,7.8
				c0,0-6.3,3.8-10.9,3.7c0,0-6.6,0.4-3.8-8.3"/>
			<ellipse class="st9" cx="888.4" cy="526" rx="3" ry="2.9"/>
			<ellipse class="st9" cx="888.5" cy="526" rx="2.1" ry="2"/>
			<path class="st10" d="M891.4,518.9c0,0-0.9,1.1-0.8,2c0.1,0.9,3.3,3.6,3.6,3.9c0.3,0.3,2.2,0.8,2.6,0.7s-0.2-0.7,1-0.7
				c1.1,0.1,1.5-0.6,1.7-0.8s0.6-0.2,0-1c-0.6-0.8-0.1-1.2-1-1.8s1.8-0.2-1-0.6s-2.3,0-2.8-0.5s0.5,0.8-0.5-0.5
				c-1-1.3-0.5-1.4-1.3-1.1C892,518.9,891.4,518.9,891.4,518.9z"/>
			<path class="st11" d="M905.6,519.7c0-0.3-1.6-4.6,0.8-7.2c0,0-6.8-12.9-20.9-10.6c-14.1,2.3-9.2,22.6-9.3,23
				c-0.1,0.5,2.3,2.4,2.9,1c0,0-0.3-10.5,13.7-13.4c0,0,8.2,1.3,12.5,7.7"/>
			<path class="st12" d="M887.7,530.8c0,0-0.1,3,6,2.5c0,0,4.1-0.2,4.4-0.6c0,0,0.8-0.5,1.4-2.7c0,0,1.4-3.1-1.3-2.7
				C898.3,527.4,891.4,531.1,887.7,530.8z"/>
			<path class="st13" d="M924.8,547.3c0-0.1,77,29.3,88.5,41.7c0,0,0.3,6.1-3.8,7c0,0-6-0.2-14.3-3.6c0,0-53.5-19.8-65.2-20.7
				c0,0-11.9-2-17.9,1.5c0,0-11.3,7-14.4,11.6c0,0,23.8,5,30.3,9.2c0,0-2.8,2.9-1.9,5.3c0,0-43,2.8-49.8-1.4c0,0-9.1-6,0-17.9
				c0,0,10.9-16.2,15.3-18.2c0,0,5.7,10,24.3,3.7c0,0,11.2-6.5,8.8-17.7c0-0.1,0-0.2-0.1-0.3"/>
			<path class="st7" d="M928,593.8c0,0,4.3,1,4.4,4.8c0,0,1,0.3-6.3,0.4C926.1,599.1,925,596.2,928,593.8z"/>
			<path class="st14" d="M928,593.8c0,0,1.4-4.3,6.4-2.1c0,0,7.5,2.7,11.1,6c0.4,0.4,0.1,1-0.4,1h-12.5
				C932.6,598.7,931.7,595.1,928,593.8z"/>
			<path class="st14" d="M1013.3,589.2c0,0,10,1,13.9,3.9c0,0,2.8,4.7-5.1,3.9l-11.9-1C1010.1,596,1012.5,593,1013.3,589.2z"/>
			<rect x="829.4" y="570.2" class="st14" width="37.2" height="28.5"/>
			<rect x="831.8" y="558.8" class="st14" width="12.2" height="11.8"/>
			<rect x="846.7" y="566.9" class="st14" width="9.8" height="3.3"/>
			<rect x="821.9" y="577.7" class="st14" width="9.8" height="14.9"/>
			<rect x="831.8" y="562.8" class="st6" width="12.2" height="2"/>
			<rect x="854.4" y="576.7" class="st6" width="12.2" height="1"/>
			<rect x="854.4" y="578.3" class="st6" width="12.2" height="1"/>
			<rect x="854.4" y="580" class="st6" width="12.2" height="1"/>
			<rect x="854.4" y="585.1" class="st6" width="12.2" height="1"/>
			<rect x="854.4" y="586.8" class="st6" width="12.2" height="1"/>
			<rect x="854.4" y="588.4" class="st6" width="12.2" height="1"/>
			<rect x="822.6" y="584" class="st6" width="12.2" height="1"/>
			<rect x="822.6" y="585.6" class="st6" width="12.2" height="1"/>
			<rect x="822.6" y="587.3" class="st6" width="12.2" height="1"/>
			<path class="st6" d="M847.7,569.1h3.5c0,0,2.3,22.3-20.3,29.6c0,0-25.4,4.7-29.5-4.4c-0.8-1.6-0.2-3.6,1.3-4.7
				c2.3-1.7,5.9-3.1,19.2-1.9v2.8l-14.8-0.1c-0.8,0-1.6,0.3-2.2,0.8c-0.9,0.9-1.3,2.4,3.9,4c1.8,0.5,3.6,0.9,5.5,1
				c5.7,0.5,18.3,0.6,25.4-7C839.7,589.2,848.8,579.9,847.7,569.1z"/>
		</g>
	</g>
	<g id="Layer_6" class="st1">
		<g class="st2">
			<g>
				<path class="st3" d="M528.2,517.6c3.5,0,4.2,5.1,4,7.7c-0.4,4.5-1.6,9.2,1.5,13c0.5,0.6,1.6,0.5,2.1,0c0.6-0.6,0.5-1.5,0-2.1
					c-1.5-1.8-1.3-4.3-1.1-6.5c0.2-2.3,0.7-4.5,0.5-6.8c-0.4-3.9-2.5-8.3-6.9-8.3C526.3,514.6,526.3,517.6,528.2,517.6L528.2,517.6z
					"/>
			</g>
		</g>
		<g class="st2">
			<g>
				<path class="st3" d="M532.3,507.5c-3.6-5.2-10.2,0-13.5,2.8c-4.6,3.9-8.5,8.7-10.5,14.4c-3.7,10.4,1.2,23.5,12.9,25.4
					c13,2,24.9-6.4,34.3-14.3c4.3-3.6,8.9-8.5,8.6-14.5c-0.3-5.8-4.8-10.6-9.6-13.3c-10-5.7-23.9-4.1-31.8,4.4
					c-1.3,1.4,0.8,3.5,2.1,2.1c6.1-6.5,15.9-8.5,24.3-5.7c4.3,1.4,8.4,4.3,10.6,8.2c2.8,4.9,0.7,9.7-2.9,13.4
					c-3.8,4-8.4,7.3-13,10.3c-4.7,3-9.9,5.5-15.5,6.4c-5.2,0.8-10.8,0-14.5-4.1c-2.9-3.3-4.1-7.9-3.9-12.2
					c0.3-5.6,3.4-10.8,7.1-14.8c2-2.1,4.2-4.1,6.5-5.8c1.3-0.9,4.7-3,6-1.1C530.8,510.6,533.4,509.1,532.3,507.5L532.3,507.5z"/>
			</g>
		</g>
		<g class="st2">
			<g>
				<path class="st3" d="M748.5,515.2c-0.3-2.8,2.9-5.6,5.7-4.3c-0.2-0.7-0.4-1.4-0.5-2c-4.1,8.8-8.6,17.3-13.6,25.5
					c-0.7,1.1,0.4,2.6,1.7,2.2c9.8-3.4,19.3-8,28.1-13.6c1.6-1,0.1-3.6-1.5-2.6c-8.6,5.5-17.8,9.9-27.4,13.3
					c0.6,0.7,1.1,1.5,1.7,2.2c5-8.3,9.5-16.8,13.6-25.5c0.3-0.7,0.2-1.7-0.5-2c-4.5-2.3-10.8,1.6-10.2,6.9
					C745.8,517.1,748.8,517.2,748.5,515.2L748.5,515.2z"/>
			</g>
		</g>
		<g class="st2">
			<g>
				<path class="st3" d="M752.3,489.2c-14.1,5.5-29.6,12.5-35.3,27.7c-2.4,6.4-2.2,13.5,1,19.5c3.2,6.1,9.2,10.2,16.3,10.3
					c4.3,0,8.5-1.2,12.5-2.7c3.9-1.5,7.7-3,11.5-4.6c7.6-3.2,15.2-6.6,22.1-11.1c6.1-3.9,12.5-8.8,15.4-15.6
					c2.7-6.4,1.4-13.2-2.9-18.5c-4.3-5.4-10.8-8.6-17.6-9.2c-8.2-0.7-16.3,2.1-23.5,5.8c-1.9,1-3.7,2-5.5,3.1
					c-1.7,1-0.2,3.6,1.5,2.6c11.5-6.9,27.5-13.3,39.5-3.7c4.5,3.6,7.9,9.3,6.8,15.3c-1.2,6.7-6.7,11.7-12,15.4
					c-6.1,4.3-12.7,7.8-19.5,10.8c-3.5,1.5-7,3-10.5,4.4c-3.6,1.5-7.2,3-11,4c-3.7,1-7.6,1.5-11.3,0.3c-2.7-0.8-5.1-2.6-6.9-4.8
					c-3.8-4.5-5.3-10.8-4.2-16.5c2.9-14.4,16.8-22.5,29.3-27.6c1.7-0.7,3.4-1.4,5.1-2C754.9,491.4,754.1,488.5,752.3,489.2
					L752.3,489.2z"/>
			</g>
		</g>
		<g class="st2">
			<g>
				<path class="st3" d="M1070.8,669.2C1070.8,669.2,1070.8,669.3,1070.8,669.2c-0.4-0.3-0.8-0.6-1.1-1c1,3.4,1.3,6.9,0.9,10.5
					c-0.1,0.8,0.8,1.5,1.5,1.5c4.1,0.1,8.9,2.6,9.6,7c0.5,3.5-3.7,7.9-7.3,6c-1.7-0.9-3.2,1.7-1.5,2.6c5.3,3,11.9-2.3,11.8-7.9
					c-0.1-6.4-6.8-10.5-12.6-10.6c0.5,0.5,1,1,1.5,1.5c0.2-2,0.2-4,0-6c-0.1-1-0.2-1.9-0.4-2.9c-0.2-0.8-0.3-2.1-0.7-2.8
					c-1.8-2.7-6,1.1-4.2,3.6C1069.3,672.3,1071.9,670.8,1070.8,669.2L1070.8,669.2z"/>
			</g>
		</g>
		<g class="st2">
			<g>
				<path class="st3" d="M1075.9,658.1c-2.7-2-6.4-2.4-9.6-1.5c-3.3,1-6,3.3-8.1,6c-4.4,5.8-6.2,13.3-6.4,20.5
					c-0.2,7.1,1,14.6,3.7,21.2c2.4,6,6.2,11.6,12.3,14.2c7,2.9,14.9,1.2,21.5-2c5.8-2.8,11.1-7.2,14.3-12.8
					c3.2-5.8,3.7-12.6,1.2-18.8c-2.5-6.3-7.3-11.6-12.5-15.8c-5.5-4.4-12.1-8.9-19.2-9.8c-6.1-0.8-13.1,1.6-16,7.4
					c-0.7,1.3-1,2.8-1.1,4.3c-0.2,1.9,2.8,1.9,3,0c0.4-5.4,6.2-8.8,11.2-8.9c6.6-0.1,12.6,3.7,17.7,7.4c9.1,6.5,18.6,17.3,14.7,29.3
					c-1.8,5.5-6.1,9.9-10.8,13c-5.2,3.4-11.6,5.7-17.9,5.2c-13-1.1-17.6-16.3-18.7-27.2c-0.8-7.3-0.1-14.9,3.2-21.5
					c1.5-3.1,3.6-6.1,6.7-7.8c2.9-1.7,6.6-1.8,9.3,0.3C1076,661.8,1077.5,659.2,1075.9,658.1L1075.9,658.1z"/>
			</g>
		</g>
		<g class="st2">
			<g>
				<path class="st3" d="M1029.4,754.9c0.5,7.6,2.2,15.6,5.8,22.4c1.4,2.6,3.5,5.3,6.5,5.8c3.8,0.7,7-2.3,9.8-4.4
					c3.6-2.7,7-5.6,10.2-8.7c1.4-1.3-0.7-3.5-2.1-2.1c-3.2,3.1-6.6,6-10.1,8.7c-1.6,1.2-3.5,2.9-5.5,3.5c-1.6,0.5-3-0.2-4.2-1.4
					c-2.7-2.8-3.9-7.1-5-10.7c-1.3-4.3-2.1-8.7-2.3-13.1C1032.3,752.9,1029.3,752.9,1029.4,754.9L1029.4,754.9z"/>
			</g>
		</g>
		<g class="st2">
			<g>
				<path class="st3" d="M1061.7,753.7c0.1,0.1,0.4,0.9,0.3,1c-0.2,0-0.3,0.1-0.4,0.1c0.1,0,0.1,0,0.1,0.1c0.1,0.2,0.5,0.5,0.6,0.7
					c0.6,0.9,1.2,1.8,1.9,2.7c1.3,1.9,2.6,3.7,3.8,5.6c2.5,3.7,5,7.3,7.6,11c1.1,1.6,3.7,0.1,2.6-1.5c-3.6-5.2-7.1-10.4-10.7-15.6
					c-0.8-1.2-1.7-2.5-2.6-3.7c-0.7-1-1.5-2-2.8-2.2c-2.4-0.4-4.1,3-1.9,4.4C1061.8,757.3,1063.3,754.7,1061.7,753.7L1061.7,753.7z"
					/>
			</g>
		</g>
	</g>
	<g id="Layer_7" class="st1">
	</g>
</g>
<g id="Layer_2">
</g>
</svg>
