<?xml version="1.0" encoding="utf-8"?>
<!-- Generator: Adobe Illustrator 24.0.0, SVG Export Plug-In . SVG Version: 6.00 Build 0)  -->
<svg version="1.1" id="Layer_1" xmlns="http://www.w3.org/2000/svg" xmlns:xlink="http://www.w3.org/1999/xlink" x="0px" y="0px"
	 viewBox="0 0 48 48" style="enable-background:new 0 0 48 48;" xml:space="preserve">
<style type="text/css">
	.st0{fill:#1D67B1;}
	.st1{fill:#FFFFFF;}
	.st2{fill:none;stroke:#FFFFFF;stroke-miterlimit:10;}
</style>
<circle class="st0" cx="24" cy="24" r="24"/>
<path class="st1" d="M24.2,15c2,0,3.7-1.7,3.7-3.7s-1.6-3.7-3.7-3.7s-3.7,1.7-3.7,3.7C20.5,13.3,22.2,15,24.2,15z M24.2,8.5
	c1.5,0,2.8,1.2,2.8,2.8s-1.2,2.8-2.8,2.8c-1.5,0-2.8-1.2-2.8-2.8S22.7,8.5,24.2,8.5z"/>
<path class="st1" d="M25.4,38.1h4.2c0.2,0,0.5-0.2,0.5-0.5v-0.2c0-1-0.7-1.9-1.7-2v-2.1c2.3,0.3,4.8,0.5,7-0.3
	c0.1,0,0.3-0.2,0.3-0.4c0-0.1,0-0.3-0.1-0.4c-2.7-2.1-3.6-4.8-4.7-7.7c-0.7-1.8-1.3-3.6-2.4-5.4c3.1-2.1,5.2-4.6,6.6-8.1
	c0.3-0.9-0.1-1.9-1-2.1c-0.9-0.3-1.7,0.2-2,1c-1,2.6-2.3,4.4-4.4,5.9c-0.1,0-0.2,0.1-0.3,0.1h-6c-0.1,0-0.2,0-0.3-0.1
	c-2-1.6-3.4-3.4-4.4-5.9c-0.3-0.8-1.2-1.2-2-1c-0.9,0.2-1.4,1.2-1,2.1c1.4,3.5,3.4,6,6.5,8.1c-1.6,1.8-2.4,3.9-3.2,6.1
	c-0.9,2.4-1.8,4.8-3.9,7c-0.3,0.4,0,0.9,0.5,0.8c1.9-0.7,4-1,6.7-0.8v3.2c-1,0.2-1.7,1-1.7,2v0.2c0,0.2,0.2,0.5,0.5,0.5h4.2
	c0.2,0,0.5-0.2,0.5-0.5V27.2h1.4v10.4C24.9,37.9,25.1,38.1,25.4,38.1z M29.1,37.2h-3.3v-10h1.7v8.5c0,0.2,0.2,0.5,0.5,0.5
	C28.5,36.2,29,36.6,29.1,37.2z M34.3,32.3c-1.8,0.4-3.9,0.3-5.9,0V20.9c0.6,1.3,1.1,2.6,1.6,3.9C31,27.5,31.9,30.1,34.3,32.3z
	 M28.1,16.4c2.1-1.6,3.6-3.7,4.7-6.3c0.1-0.3,0.5-0.6,0.9-0.4c0.4,0.1,0.6,0.6,0.4,1c-1.3,3.4-3.2,5.8-6.2,7.7
	c-0.2,0.1-0.4,0.4-0.4,0.7l0,0c0,0,0,0,0,0.1v7.2h-2.8v-9.6h2.6C27.5,16.7,27.9,16.6,28.1,16.4z M14.3,10.6c-0.1-0.4,0-0.8,0.4-1
	c0.3-0.1,0.8,0.1,0.9,0.4c1,2.7,2.5,4.7,4.7,6.3c0.2,0.2,0.6,0.3,0.9,0.3h2.5v9.6h-2.8v-7.1l0,0l0,0c0-0.3-0.1-0.6-0.4-0.8
	C17.5,16.3,15.6,14,14.3,10.6z M14.5,31.6c1.5-2,2.2-4.1,3-6.1c0.7-1.8,1.3-3.6,2.5-5v10.8C17.9,31,16.1,31.2,14.5,31.6z M19.3,37.2
	c0.1-0.5,0.6-1,1.1-1c0.2,0,0.5-0.2,0.5-0.5v-8.6h1.7v9.9L19.3,37.2L19.3,37.2z"/>
<circle class="st2" cx="24" cy="24" r="24"/>
</svg>
