<?xml version="1.0" encoding="utf-8"?>
<!-- Generator: Adobe Illustrator 24.0.0, SVG Export Plug-In . SVG Version: 6.00 Build 0)  -->
<svg version="1.1" xmlns="http://www.w3.org/2000/svg" xmlns:xlink="http://www.w3.org/1999/xlink" x="0px" y="0px"
	 viewBox="0 0 64 64" style="enable-background:new 0 0 64 64;" xml:space="preserve">
<style type="text/css">
	.st0{fill:none;stroke:#000000;stroke-miterlimit:10;}
	.st1{display:none;}
	.st2{display:inline;opacity:0.09;}
	.st3{fill:#231F20;}
</style>
<g id="Layer_1">
	<path class="st0" d="M45.01,50.17H20.14c-3.13,0-5.5-2.81-4.99-5.89l3.25-19.43c0.09-0.55,0.13-1.12,0.17-1.68
		C19,16.76,24.34,11.7,30.86,11.7h1.88c6.52,0,11.85,5.06,12.29,11.47c0.06,0.85,0.23,1.69,0.42,2.51l4.33,18.44
		C50.51,47.21,48.17,50.16,45.01,50.17L45.01,50.17z"/>
	<g>
		<g>
			<path d="M25.47,54.45c2.04,1.12,4.07,1.99,6.45,1.99c2.4,0.01,4.44-0.87,6.5-1.99c1.13-0.61,0.12-2.34-1.01-1.73
				c-0.57,0.31-1.13,0.64-1.71,0.91c-1.18,0.55-2.49,0.81-3.78,0.81c-2.02,0-3.71-0.77-5.44-1.72
				C25.35,52.11,24.34,53.83,25.47,54.45L25.47,54.45z"/>
		</g>
	</g>
	<g>
		<g>
			<path d="M38.72,9.57c-1.96-1.08-3.91-1.92-6.19-1.92c-2.31,0-4.27,0.85-6.25,1.92c-0.57,0.31-0.06,1.17,0.5,0.86
				c0.57-0.31,1.13-0.64,1.71-0.91c1.26-0.59,2.65-0.88,4.03-0.88c2.11,0,3.88,0.8,5.69,1.79C38.78,10.74,39.29,9.88,38.72,9.57
				L38.72,9.57z"/>
		</g>
	</g>
</g>
<g id="Layer_2" class="st1">
	<g class="st2">
		<path class="st3" d="M32.23,29.54c0.16-0.22,0.48-0.27,0.7-0.11l0,0c0.22,0.16,0.27,0.48,0.11,0.7l0,0
			c-0.16,0.22-0.47,0.27-0.7,0.11l0,0C32.12,30.08,32.07,29.77,32.23,29.54L32.23,29.54z M48.1,7.7c0.16-0.22,0.48-0.27,0.7-0.11
			l0,0c0.22,0.16,0.27,0.48,0.11,0.7l0,0c-0.16,0.22-0.48,0.27-0.7,0.11l0,0C47.99,8.24,47.94,7.92,48.1,7.7L48.1,7.7z M27.58,22.61
			c0.26-0.08,0.55,0.06,0.63,0.32l0,0c0.09,0.26-0.06,0.55-0.32,0.63l0,0c-0.26,0.08-0.54-0.06-0.63-0.32l0,0
			C27.17,22.98,27.32,22.7,27.58,22.61L27.58,22.61z M53.26,14.27c0.26-0.09,0.54,0.06,0.63,0.32l0,0c0.09,0.26-0.06,0.55-0.32,0.63
			l0,0c-0.26,0.09-0.55-0.06-0.63-0.32l0,0C52.85,14.64,53,14.35,53.26,14.27L53.26,14.27z M27.89,14.27
			c0.26,0.09,0.41,0.37,0.32,0.63l0,0c-0.09,0.26-0.37,0.41-0.63,0.32l0,0c-0.26-0.09-0.41-0.37-0.32-0.63l0,0
			C27.34,14.33,27.63,14.18,27.89,14.27L27.89,14.27z M53.57,22.61c0.26,0.08,0.41,0.37,0.32,0.63l0,0
			c-0.08,0.26-0.37,0.41-0.63,0.32l0,0c-0.26-0.08-0.41-0.37-0.32-0.63l0,0C53.02,22.67,53.3,22.53,53.57,22.61L53.57,22.61z"/>
		<g>
			<path class="st3" d="M33.04,7.7c0.16,0.22,0.11,0.54-0.11,0.7l0,0c-0.22,0.16-0.54,0.11-0.7-0.11l0,0
				c-0.16-0.22-0.11-0.54,0.11-0.7l0,0C32.57,7.43,32.88,7.48,33.04,7.7L33.04,7.7z M48.91,29.54c0.16,0.22,0.11,0.54-0.11,0.7l0,0
				c-0.22,0.16-0.54,0.11-0.7-0.11l0,0c-0.16-0.22-0.11-0.54,0.11-0.7l0,0C48.44,29.27,48.75,29.32,48.91,29.54L48.91,29.54z"/>
		</g>
		<g>
			<path class="st3" d="M41.07,5.42c0,0.28-0.23,0.5-0.5,0.5l0,0c-0.28,0-0.5-0.22-0.5-0.5l0,0c0-0.28,0.22-0.5,0.5-0.5l0,0
				C40.85,4.92,41.07,5.14,41.07,5.42L41.07,5.42z M41.07,32.42c0,0.27-0.23,0.5-0.5,0.5l0,0c-0.28,0-0.5-0.23-0.5-0.5l0,0
				c0-0.28,0.22-0.5,0.5-0.5l0,0C40.85,31.92,41.07,32.14,41.07,32.42L41.07,32.42z"/>
		</g>
		<path class="st3" d="M40.57,22.92c-2.21,0-4-1.79-4-4s1.79-4,4-4s4,1.79,4,4S42.78,22.92,40.57,22.92z M40.57,15.92
			c-1.65,0-3,1.35-3,3c0,1.65,1.35,3,3,3s3-1.35,3-3S42.23,15.92,40.57,15.92z"/>
		<g>
			<path class="st3" d="M38.13,21.42l-2.66,3.66c0.26,0.21,0.53,0.4,0.81,0.58L38.95,22C38.65,21.84,38.37,21.65,38.13,21.42z
				 M32.82,28.73c-0.16,0.22-0.11,0.54,0.11,0.7c0.22,0.16,0.54,0.11,0.7-0.11l1.19-1.63c-0.28-0.18-0.55-0.38-0.81-0.59
				L32.82,28.73z M48.32,9.1c0.16-0.22,0.11-0.54-0.11-0.7c-0.22-0.16-0.54-0.11-0.7,0.11l-1.19,1.63c0.28,0.18,0.55,0.38,0.81,0.59
				L48.32,9.1z M43.01,16.41l2.66-3.66c-0.26-0.21-0.53-0.4-0.81-0.58l-2.66,3.66C42.49,15.99,42.77,16.18,43.01,16.41z M28.53,22.3
				c-0.26,0.08-0.41,0.37-0.32,0.63c0.09,0.26,0.37,0.41,0.63,0.32l1.92-0.63c-0.12-0.31-0.22-0.63-0.31-0.95L28.53,22.3z
				 M37.13,19.51l-4.3,1.4c0.08,0.33,0.18,0.64,0.31,0.95l4.31-1.4C37.3,20.16,37.19,19.84,37.13,19.51z M44.01,18.32l4.3-1.4
				c-0.08-0.33-0.18-0.64-0.31-0.95l-4.31,1.4C43.84,17.67,43.95,17.99,44.01,18.32z M52.61,15.53c0.26-0.09,0.41-0.37,0.32-0.63
				c-0.09-0.26-0.37-0.4-0.63-0.32l-1.92,0.63c0.12,0.31,0.22,0.63,0.31,0.95L52.61,15.53z M28.84,14.58
				c-0.26-0.09-0.55,0.06-0.63,0.32c-0.08,0.26,0.06,0.55,0.32,0.63l1.92,0.63c0.09-0.32,0.19-0.64,0.31-0.95L28.84,14.58z
				 M37.45,17.37l-4.31-1.4c-0.12,0.31-0.22,0.63-0.31,0.95l4.3,1.4C37.19,17.99,37.3,17.67,37.45,17.37z M52.61,22.3l-1.92-0.63
				c-0.09,0.32-0.19,0.64-0.31,0.95l1.92,0.62c0.26,0.08,0.55-0.06,0.63-0.32C53.02,22.67,52.88,22.39,52.61,22.3z M43.7,20.46
				l4.31,1.4c0.12-0.31,0.22-0.63,0.31-0.95l-4.3-1.4C43.95,19.84,43.84,20.16,43.7,20.46z M38.95,15.83l-2.66-3.66
				c-0.28,0.18-0.56,0.37-0.81,0.58l2.66,3.66C38.37,16.18,38.65,15.99,38.95,15.83z M33.63,8.51c-0.16-0.22-0.48-0.27-0.7-0.11
				c-0.22,0.16-0.27,0.48-0.11,0.7l1.19,1.63c0.26-0.21,0.53-0.41,0.81-0.59L33.63,8.51z M47.51,29.32c0.16,0.22,0.48,0.27,0.7,0.11
				c0.22-0.16,0.27-0.48,0.11-0.7l-1.19-1.63c-0.26,0.21-0.53,0.41-0.81,0.59L47.51,29.32z M42.19,22l2.66,3.67
				c0.28-0.18,0.56-0.37,0.81-0.58l-2.66-3.66C42.77,21.65,42.49,21.84,42.19,22z M41.07,8.44V6.42c0-0.28-0.22-0.5-0.5-0.5
				c-0.28,0-0.5,0.22-0.5,0.5v2.02c0.17-0.01,0.33-0.02,0.5-0.02S40.9,8.43,41.07,8.44z M40.57,15.42c0.17,0,0.33,0.03,0.5,0.05
				v-4.53c-0.17-0.01-0.33-0.02-0.5-0.02c-0.17,0-0.33,0.02-0.5,0.02v4.52C40.24,15.44,40.4,15.42,40.57,15.42z M40.07,29.39v2.02
				c0,0.28,0.22,0.5,0.5,0.5s0.5-0.22,0.5-0.5v-2.02c-0.17,0.01-0.33,0.02-0.5,0.02C40.4,29.42,40.24,29.4,40.07,29.39z
				 M40.57,22.42c-0.17,0-0.33-0.03-0.5-0.05v4.52c0.17,0.01,0.33,0.03,0.5,0.03s0.33-0.01,0.5-0.02v-4.52
				C40.91,22.39,40.74,22.42,40.57,22.42z"/>
		</g>
		<g>
			<path class="st3" d="M40.57,29.92c-6.06,0-11-4.93-11-11c0-1.15,0.18-2.29,0.53-3.38c0.09-0.26,0.37-0.41,0.63-0.32
				c0.26,0.09,0.41,0.37,0.32,0.63c-0.32,0.99-0.48,2.02-0.48,3.07c0,5.51,4.49,10,10,10s10-4.49,10-10s-4.49-10-10-10
				c-1.48,0-2.91,0.32-4.24,0.94c-0.25,0.12-0.55,0.01-0.67-0.24s-0.01-0.55,0.24-0.66c1.46-0.69,3.03-1.03,4.66-1.03
				c6.06,0,11,4.93,11,11S46.64,29.92,40.57,29.92z M40.57,27.42c-4.69,0-8.5-3.81-8.5-8.5s3.81-8.5,8.5-8.5s8.5,3.81,8.5,8.5
				S45.26,27.42,40.57,27.42z M40.57,11.42c-4.14,0-7.5,3.36-7.5,7.5s3.36,7.5,7.5,7.5s7.5-3.36,7.5-7.5S44.71,11.42,40.57,11.42z
				 M31.47,14.17c-0.08,0-0.17-0.02-0.25-0.07c-0.24-0.14-0.32-0.44-0.18-0.68c0.78-1.35,1.86-2.54,3.12-3.45
				c0.22-0.16,0.54-0.11,0.7,0.11c0.16,0.22,0.11,0.54-0.11,0.7c-1.15,0.82-2.13,1.91-2.84,3.14
				C31.81,14.08,31.64,14.17,31.47,14.17z"/>
		</g>
		<path class="st3" d="M48.58,32.69c-0.17,0-0.33-0.09-0.43-0.24c-0.14-0.24-0.07-0.54,0.17-0.69c2.71-1.64,4.87-4.14,6.09-7.04
			c0.11-0.25,0.4-0.37,0.65-0.27c0.26,0.11,0.38,0.4,0.27,0.65c-1.3,3.1-3.61,5.77-6.49,7.51C48.75,32.67,48.66,32.69,48.58,32.69z"
			/>
		<g>
			<path class="st3" d="M26.28,13.42c-0.06,0-0.13-0.01-0.19-0.04c-0.25-0.11-0.38-0.4-0.27-0.65c1.3-3.1,3.61-5.77,6.5-7.52
				c0.24-0.14,0.54-0.07,0.69,0.17c0.14,0.24,0.07,0.54-0.17,0.69c-2.71,1.64-4.88,4.14-6.1,7.05
				C26.66,13.3,26.47,13.42,26.28,13.42z M35.58,4.42c0,0.28-0.22,0.5-0.5,0.5l0,0c-0.27,0-0.5-0.22-0.5-0.5l0,0
				c0-0.28,0.23-0.5,0.5-0.5l0,0C35.35,3.92,35.58,4.14,35.58,4.42L35.58,4.42z"/>
		</g>
	</g>
</g>
<g id="Layer_3">
</g>
</svg>
