<?xml version="1.0" encoding="utf-8"?>
<!-- Generator: Adobe Illustrator 24.0.0, SVG Export Plug-In . SVG Version: 6.00 Build 0)  -->
<svg version="1.1" xmlns="http://www.w3.org/2000/svg" xmlns:xlink="http://www.w3.org/1999/xlink" x="0px" y="0px"
	 viewBox="0 0 64 64" style="enable-background:new 0 0 64 64;" xml:space="preserve">
<style type="text/css">
	.st0{display:none;}
	.st1{display:inline;fill:none;stroke:#000000;stroke-miterlimit:10;}
	.st2{display:inline;}
	.st3{display:inline;stroke:#000000;stroke-miterlimit:10;}
	.st4{stroke:#000000;stroke-miterlimit:10;}
	.st5{fill:none;stroke:#000000;stroke-miterlimit:10;}
</style>
<g id="Layer_1" class="st0">
	<path class="st1" d="M45.01,50.17H20.14c-3.13,0-5.5-2.81-4.99-5.89l3.25-19.43c0.09-0.55,0.13-1.12,0.17-1.68
		C19,16.76,24.34,11.7,30.86,11.7h1.88c6.52,0,11.85,5.06,12.29,11.47c0.06,0.85,0.23,1.69,0.42,2.51l4.33,18.44
		C50.51,47.21,48.17,50.16,45.01,50.17L45.01,50.17z"/>
	<g class="st2">
		<g>
			<path d="M25.47,54.45c2.04,1.12,4.07,1.99,6.45,1.99c2.4,0.01,4.44-0.87,6.5-1.99c1.13-0.61,0.12-2.34-1.01-1.73
				c-0.57,0.31-1.13,0.64-1.71,0.91c-1.18,0.55-2.49,0.81-3.78,0.81c-2.02,0-3.71-0.77-5.44-1.72
				C25.35,52.11,24.34,53.83,25.47,54.45L25.47,54.45z"/>
		</g>
	</g>
	<g class="st2">
		<g>
			<path d="M38.72,9.57c-1.96-1.08-3.91-1.92-6.19-1.92c-2.31,0-4.27,0.85-6.25,1.92c-0.57,0.31-0.06,1.17,0.5,0.86
				c0.57-0.31,1.13-0.64,1.71-0.91c1.26-0.59,2.65-0.88,4.03-0.88c2.11,0,3.88,0.8,5.69,1.79C38.78,10.74,39.29,9.88,38.72,9.57
				L38.72,9.57z"/>
		</g>
	</g>
</g>
<g id="Layer_2" class="st0">
	<g class="st2">
		<g>
			<path d="M32.57,12.44c0.15,0.21,0.11,0.51-0.11,0.66l0,0c-0.21,0.15-0.51,0.11-0.66-0.1l0,0c-0.15-0.21-0.11-0.51,0.11-0.66l0,0
				C32.12,12.19,32.41,12.23,32.57,12.44L32.57,12.44z M47.64,33.19c0.15,0.21,0.11,0.51-0.11,0.66l0,0
				c-0.21,0.15-0.51,0.11-0.66-0.1l0,0c-0.15-0.21-0.11-0.51,0.11-0.66l0,0C47.18,32.93,47.48,32.97,47.64,33.19L47.64,33.19z"/>
		</g>
		<g>
			<path d="M40.19,10.28c0,0.26-0.21,0.47-0.47,0.47l0,0c-0.26,0-0.47-0.21-0.47-0.47l0,0c0-0.26,0.21-0.47,0.47-0.47l0,0
				C39.98,9.8,40.19,10.02,40.19,10.28L40.19,10.28z M40.19,35.91c0,0.26-0.21,0.47-0.47,0.47l0,0c-0.26,0-0.47-0.21-0.47-0.47l0,0
				c0-0.26,0.21-0.47,0.47-0.47l0,0C39.98,35.44,40.19,35.65,40.19,35.91L40.19,35.91z"/>
		</g>
		<path d="M43.45,22.38c-0.07-0.32-0.16-0.62-0.3-0.9c-0.2-0.44-0.48-0.82-0.83-1.15c-0.23-0.21-0.48-0.4-0.77-0.56
			c-0.41-0.22-0.86-0.37-1.36-0.44c-0.15-0.02-0.31-0.03-0.47-0.03c-0.16,0-0.32,0.01-0.47,0.03c-0.48,0.07-0.94,0.22-1.35,0.44
			c-0.28,0.16-0.54,0.34-0.77,0.56c-0.35,0.32-0.64,0.71-0.84,1.15c-0.14,0.28-0.24,0.58-0.3,0.9c-0.04,0.23-0.07,0.47-0.07,0.72
			c0,0.25,0.02,0.48,0.07,0.71c0.07,0.32,0.16,0.63,0.29,0.9c0.21,0.44,0.49,0.83,0.85,1.15c0.23,0.22,0.48,0.41,0.77,0.56
			c0.41,0.23,0.86,0.38,1.35,0.45c0.15,0.02,0.31,0.03,0.47,0.03c0.16,0,0.32-0.01,0.47-0.03c0.49-0.07,0.95-0.22,1.36-0.45
			c0.28-0.15,0.54-0.34,0.77-0.56c0.34-0.32,0.63-0.71,0.84-1.15c0.13-0.28,0.23-0.58,0.29-0.9c0.05-0.23,0.07-0.47,0.07-0.71
			C43.51,22.85,43.49,22.61,43.45,22.38z M39.72,25.95c-1.57,0-2.85-1.28-2.85-2.85c0-1.58,1.28-2.85,2.85-2.85
			c1.58,0,2.85,1.27,2.85,2.85C42.56,24.67,41.29,25.95,39.72,25.95z"/>
		<g>
			<path d="M36.75,21.63l-4.09-1.33c-0.12,0.29-0.21,0.6-0.29,0.9l4.08,1.33C36.51,22.21,36.61,21.91,36.75,21.63z"/>
			<path d="M44.56,17.24c-0.24-0.2-0.5-0.38-0.77-0.55l-2.53,3.48c0.28,0.15,0.55,0.33,0.77,0.55L44.56,17.24z"/>
			<path d="M38.18,20.17l-2.53-3.48c-0.27,0.17-0.53,0.35-0.77,0.55l2.53,3.48C37.63,20.5,37.9,20.32,38.18,20.17z"/>
			<path d="M46.78,25.89c0.12-0.29,0.21-0.6,0.29-0.9l-4.08-1.33c-0.06,0.32-0.16,0.62-0.3,0.9L46.78,25.89z"/>
			<path d="M42.69,21.63c0.14,0.28,0.24,0.58,0.3,0.9l4.08-1.33c-0.08-0.31-0.17-0.61-0.29-0.9L42.69,21.63z"/>
			<path d="M41.26,26.02l2.53,3.48c0.27-0.17,0.53-0.35,0.77-0.55l-2.53-3.48C41.81,25.69,41.54,25.87,41.26,26.02z"/>
			<path d="M39.24,15.52v4.3c0.16-0.02,0.31-0.05,0.47-0.05s0.32,0.02,0.47,0.05v-4.3c-0.16-0.01-0.31-0.02-0.47-0.02
				C39.56,15.5,39.4,15.51,39.24,15.52z"/>
		</g>
		<g>
			<path d="M30.84,18.53c0.08,0.04,0.16,0.06,0.24,0.06c0.16,0,0.32-0.09,0.41-0.24c0.67-1.16,1.6-2.19,2.7-2.97
				c0.22-0.15,0.27-0.45,0.11-0.66c-0.05-0.07-0.11-0.11-0.19-0.15c-0.15-0.07-0.33-0.06-0.47,0.05c-0.14,0.1-0.29,0.21-0.43,0.32
				c-1.02,0.82-1.89,1.82-2.54,2.94C30.54,18.1,30.61,18.4,30.84,18.53z"/>
			<path d="M39.72,15.03c-4.45,0-8.07,3.62-8.07,8.07c0,0.09,0.02,0.18,0.02,0.27c0.08-0.01,0.15-0.02,0.23-0.02
				c0.26,0,0.5,0.03,0.72,0.08c-0.01-0.11-0.02-0.22-0.02-0.33c0-0.61,0.08-1.19,0.23-1.75c0.07-0.31,0.17-0.62,0.28-0.91
				c0.45-1.1,1.16-2.06,2.05-2.8c0.25-0.21,0.5-0.4,0.78-0.56c0.97-0.63,2.09-1.01,3.3-1.07c0.16-0.02,0.31-0.03,0.47-0.03
				c0.16,0,0.31,0.01,0.47,0.03c1.22,0.07,2.35,0.45,3.31,1.07c0.27,0.16,0.52,0.35,0.77,0.56c0.9,0.74,1.61,1.71,2.05,2.81
				c0.12,0.29,0.22,0.59,0.28,0.9c0.15,0.56,0.23,1.14,0.23,1.75c0,0.6-0.08,1.19-0.22,1.74c-0.08,0.31-0.17,0.61-0.29,0.9
				c-0.44,1.1-1.15,2.08-2.05,2.82c-0.24,0.21-0.49,0.4-0.76,0.56c-0.97,0.62-2.11,1.01-3.32,1.07c-0.16,0.02-0.31,0.03-0.47,0.03
				c-0.13,0-0.26-0.01-0.38-0.02c0.02,0.32-0.01,0.64-0.09,0.95c0.16,0.01,0.31,0.03,0.47,0.03c4.45,0,8.07-3.63,8.07-8.07
				C47.79,18.65,44.17,15.03,39.72,15.03z"/>
			<path d="M49.78,20.32c-0.08-0.3-0.18-0.61-0.29-0.9c-0.66-1.78-1.8-3.31-3.26-4.48c-0.25-0.2-0.5-0.38-0.77-0.55
				c-1.52-1.02-3.33-1.63-5.27-1.72c-0.15-0.01-0.31-0.01-0.47-0.01c-0.16,0-0.31,0-0.47,0.02c-1.38,0.05-2.7,0.37-3.95,0.96
				c-0.24,0.11-0.34,0.39-0.23,0.63s0.4,0.34,0.64,0.23c1.26-0.59,2.61-0.88,4.02-0.88c5.24,0,9.49,4.25,9.49,9.49
				c0,5.23-4.25,9.49-9.49,9.49c-0.18,0-0.36-0.02-0.54-0.03c0.01,0.32-0.03,0.64-0.11,0.95c0.06,0,0.12,0.02,0.18,0.02
				c0.15,0.01,0.31,0.01,0.47,0.01c0.16,0,0.32,0,0.47-0.01c1.94-0.09,3.75-0.71,5.27-1.73c0.27-0.16,0.52-0.35,0.77-0.55
				c1.45-1.16,2.59-2.71,3.27-4.48c0.11-0.29,0.21-0.6,0.28-0.9c0.25-0.88,0.38-1.81,0.38-2.77C50.16,22.13,50.03,21.2,49.78,20.32z
				"/>
			<path d="M29.55,23.71c0.26,0,0.49,0.03,0.71,0.08c-0.02-0.23-0.04-0.46-0.04-0.69c0-1,0.15-1.98,0.46-2.92
				c0.09-0.24-0.05-0.49-0.28-0.59c-0.01,0-0.01-0.01-0.02-0.01c-0.25-0.08-0.51,0.06-0.6,0.3c-0.05,0.14-0.09,0.29-0.12,0.45
				c-0.26,0.89-0.38,1.82-0.38,2.77c0,0.21,0.03,0.42,0.04,0.63C29.4,23.73,29.47,23.71,29.55,23.71z"/>
		</g>
		<path d="M47.32,36.17c-0.16,0-0.32-0.08-0.41-0.23c-0.14-0.22-0.06-0.52,0.16-0.65c2.57-1.55,4.62-3.93,5.78-6.69
			c0.1-0.24,0.38-0.36,0.62-0.25c0.24,0.1,0.36,0.38,0.25,0.62c-1.24,2.94-3.43,5.48-6.17,7.13C47.49,36.15,47.4,36.17,47.32,36.17z
			"/>
		<g>
			<path d="M26.14,17.87c-0.06,0-0.12-0.01-0.18-0.04c-0.24-0.1-0.36-0.38-0.25-0.62c1.24-2.95,3.43-5.48,6.17-7.14
				c0.22-0.13,0.52-0.06,0.65,0.16c0.14,0.22,0.06,0.52-0.16,0.65c-2.57,1.55-4.63,3.93-5.79,6.69
				C26.51,17.76,26.33,17.87,26.14,17.87z M34.97,9.33c0,0.26-0.21,0.47-0.47,0.47l0,0c-0.26,0-0.47-0.21-0.47-0.47l0,0
				c0-0.26,0.21-0.47,0.47-0.47l0,0C34.76,8.85,34.97,9.07,34.97,9.33L34.97,9.33z"/>
		</g>
	</g>
	<path class="st1" d="M39.24,26.43v25.61c0,1.26-1.02,2.29-2.28,2.29h-20.4c-1.26,0-2.28-1.03-2.28-2.29V25.86
		c0-1.26,1.02-2.28,2.28-2.28H36.4C36.4,25.15,37.68,26.43,39.24,26.43z"/>
	<path class="st3" d="M35.73,51.57c-4.01,0-14.33,0-18.25,0c-0.78,0-1.33-0.74-1.12-1.49l2.13-7.53c0.36-1.29,2.16-1.36,2.63-0.11
		l1.08,2.89c0.13,0.35,0.38,0.65,0.72,0.81c0.54,0.26,1.44,0.42,2.55-0.38c1.57-1.13,5.47-3.81,6.61-4.6
		c0.32-0.22,0.72-0.32,1.1-0.24c1.14,0.24,3.19,1.71,4.01,8.97C37.3,50.79,36.61,51.57,35.73,51.57z"/>
	<circle class="st3" cx="20.34" cy="31.57" r="3.26"/>
</g>
<g id="Layer_4">
	<path class="st4" d="M44.28,51.58c-5.65,0-20.21,0-25.73,0c-1.09,0-1.87-1.03-1.58-2.06l3-10.44c0.51-1.79,3.05-1.89,3.71-0.15
		l1.53,4.02c0.18,0.49,0.54,0.9,1.01,1.12c0.76,0.35,2.03,0.58,3.59-0.53c2.22-1.56,7.71-5.29,9.32-6.38
		c0.46-0.31,1.01-0.44,1.56-0.33c1.6,0.33,4.5,2.37,5.66,12.45C46.49,50.5,45.53,51.58,44.28,51.58z"/>
	<path class="st5" d="M43.21,14.33h1.92c2.36,0,4.28,1.92,4.28,4.28v30.97c0,2.36-1.92,4.28-4.28,4.28H19.1
		c-2.36,0-4.28-1.92-4.28-4.28V18.61c0-2.36,1.92-4.28,4.28-4.28h2.06"/>
	<circle class="st4" cx="20.65" cy="28.06" r="2.58"/>
	<path class="st5" d="M32.82,10.16l1.32,2.67c0.1,0.2,0.28,0.33,0.5,0.36l2.94,0.43c0.55,0.08,0.76,0.75,0.37,1.14l-2.13,2.08
		c-0.16,0.15-0.23,0.37-0.19,0.59l0.5,2.93c0.09,0.54-0.48,0.96-0.97,0.7l-2.63-1.38c-0.19-0.1-0.43-0.1-0.62,0l-2.63,1.38
		c-0.49,0.26-1.06-0.16-0.97-0.7l0.5-2.93c0.04-0.22-0.03-0.44-0.19-0.59l-2.13-2.08c-0.4-0.39-0.18-1.06,0.37-1.14l2.94-0.43
		c0.22-0.03,0.4-0.17,0.5-0.36l1.32-2.67C31.87,9.67,32.58,9.67,32.82,10.16z"/>
	<path class="st5" d="M28.37,18.52c-0.17,0.16-0.44,0.22-0.68,0.09l-2.33-1.23c-0.17-0.09-0.38-0.09-0.55,0l-2.33,1.23
		c-0.43,0.23-0.94-0.14-0.86-0.62l0.45-2.59"/>
	<path class="st5" d="M22.08,15.4c0.03-0.19-0.03-0.39-0.17-0.52l-1.89-1.84c-0.35-0.34-0.16-0.94,0.33-1.01l2.61-0.38
		c0.19-0.03,0.36-0.15,0.44-0.32l1.17-2.36c0.22-0.44,0.84-0.44,1.06,0l1.17,2.36c0.09,0.17,0.25,0.29,0.44,0.32l2.61,0.38
		c0.12,0.02,0.22,0.07,0.3,0.14"/>
	<g>
		<path class="st5" d="M35.94,18.52c0.17,0.16,0.44,0.22,0.68,0.09l2.33-1.23c0.17-0.09,0.38-0.09,0.55,0l2.33,1.23
			c0.43,0.23,0.94-0.14,0.86-0.62l-0.45-2.59"/>
		<path class="st5" d="M42.23,15.4c-0.03-0.19,0.03-0.39,0.17-0.52l1.89-1.84c0.35-0.34,0.16-0.94-0.33-1.01l-2.61-0.38
			c-0.19-0.03-0.36-0.15-0.44-0.32l-1.17-2.36c-0.22-0.44-0.84-0.44-1.06,0l-1.17,2.36c-0.09,0.17-0.25,0.29-0.44,0.32l-2.61,0.38
			c-0.12,0.02-0.22,0.07-0.3,0.14"/>
	</g>
</g>
<g id="Layer_3">
</g>
</svg>
