<?xml version="1.0" encoding="utf-8"?>
<!-- Generator: Adobe Illustrator 24.0.0, SVG Export Plug-In . SVG Version: 6.00 Build 0)  -->
<svg version="1.1" id="Layer_1" xmlns="http://www.w3.org/2000/svg" xmlns:xlink="http://www.w3.org/1999/xlink" x="0px" y="0px"
	 viewBox="0 0 48 48" style="enable-background:new 0 0 48 48;" xml:space="preserve">
<style type="text/css">
	.st0{fill:#1D67B1;}
	.st1{fill:none;stroke:#FFFFFF;stroke-miterlimit:10;}
	.st2{fill:none;stroke:#FFFFFF;stroke-width:0.5;stroke-miterlimit:10;}
</style>
<circle class="st0" cx="24" cy="24" r="24"/>
<circle class="st1" cx="24" cy="24" r="24"/>
<g id="layer1" transform="translate(0,-1020.3622)">
	<g id="g12071" transform="translate(-402.42978,-29.912153)">
		<path id="path10784" class="st2" d="M419.9,1065.3L419.9,1065.3c-1.8,0-3.3,1.5-3.5,3.3c-1.5,0.4-2.5,1.7-2.5,3.2
			c0,1.9,1.6,3.5,3.5,3.5h4.6v-1h-4.6c-1.4,0-2.5-1.1-2.5-2.5c0-0.9,0.5-1.7,1.2-2.1c0.2-0.1,0.4-0.2,0.6-0.3c0.1,0,0.2-0.1,0.3-0.1
			c0.1,0,0.3,0,0.5,0c0.7,0,1.4,0.3,1.8,0.8c0.5,0.5,1.2-0.2,0.7-0.7c-0.6-0.7-1.5-1.1-2.5-1.1c0.2-1.1,1.2-2,2.4-2
			c1.2,0,2.2,0.8,2.5,2c0.1,0.3,0.5,0.5,0.8,0.3c0.3-0.2,0.6-0.3,0.9-0.3l-0.2-1c-0.3,0-0.5,0.2-0.8,0.3
			C422.5,1066.3,421.4,1065.3,419.9,1065.3L419.9,1065.3L419.9,1065.3z M434.4,1073.3c-0.2,0-0.4,0-0.6,0l0.2,1c0.1,0,0.3,0,0.4,0
			c1.4,0,2.5,1.1,2.5,2.5c0,0.3,0.2,0.5,0.5,0.5c0.8,0,1.5,0.7,1.5,1.5s-0.7,1.5-1.5,1.5h-6.5v1h6.5c1.4,0,2.5-1.1,2.5-2.5
			c0-1.2-0.9-2.1-2.1-2.3C437.7,1074.7,436.2,1073.3,434.4,1073.3z"/>
		<path id="path10750" class="st2" d="M418.9,1059.3v1h1v-1H418.9z M423.9,1060.3v1h1v-1H423.9z M427.9,1060.3
			c-0.2,0-0.3,0.1-0.4,0.2l-4,6c0,0,0,0,0,0c0,0,0,0,0,0c0,0,0,0,0,0c0,0,0,0,0,0c0,0,0,0,0,0c0,0,0,0,0,0c0,0,0,0,0,0.1
			c0,0,0,0,0,0c0,0,0,0,0,0c0,0,0,0,0,0c0,0,0,0,0,0c0,0,0,0,0,0v4.6c-0.2-0.1-0.3-0.1-0.5-0.1c-0.8,0-1.5,0.7-1.5,1.5v6
			c0,0.3,0.2,0.5,0.5,0.5h2c0.3,0,0.5-0.2,0.5-0.5v6.4h0c0,0,0,0,0,0.1c0,1.1-0.9,2-2,2c-1.1,0-2-0.9-2-2c0-0.3-0.2-0.5-0.5-0.5
			c0,0,0,0,0,0c-0.3,0-0.5,0.2-0.5,0.5c0,1.7,1.3,3,3,3s3-1.3,3-3c0,0,0,0,0-0.1h0v-7.9h1v6h1v-6h1v8c0,0,0,0,0,0c0,2.2,1.8,4,4,4
			s4-1.8,4-4c0-0.3-0.2-0.5-0.5-0.5c-0.3,0-0.5,0.2-0.5,0.5c0,0,0,0,0,0c0,1.7-1.3,3-3,3s-3-1.3-3-3c0,0,0,0,0,0v-8h1v8
			c0,1.1,0.9,2,2,2s2-0.9,2-2c0-0.3-0.2-0.5-0.5-0.5c-0.3,0-0.5,0.2-0.5,0.5c0,0,0,0,0,0c0,0.6-0.4,1-1,1s-1-0.4-1-1v-6.5
			c0,0.3,0.2,0.5,0.5,0.5h2c0.3,0,0.5-0.2,0.5-0.5v-6c0-0.8-0.7-1.5-1.5-1.5c-0.2,0-0.3,0-0.5,0.1v-4.6c0,0,0,0,0,0c0,0,0,0,0,0
			c0,0,0,0,0,0c0,0,0,0,0,0c0,0,0,0,0,0c0,0,0,0,0-0.1c0,0,0,0,0,0c0,0,0,0,0,0c0,0,0,0,0,0c0,0,0,0,0,0c0,0,0,0,0,0c0,0,0,0,0,0
			l-4-6C428.2,1060.4,428,1060.3,427.9,1060.3L427.9,1060.3z M427.9,1061.7l3.1,4.6h-6.1L427.9,1061.7z M434.9,1062.3v1h1v-1H434.9z
			 M440.9,1062.3v1h1v-1H440.9z M419.9,1063.3v1h1v-1H419.9z M414.9,1064.3v1h1v-1H414.9z M436.9,1066.3v1h1v-1H436.9z
			 M424.4,1067.3h7v9h-7V1067.3z M425.4,1068.3v1h1v-1H425.4z M425.4,1070.3v5h1v-5H425.4z M438.9,1070.3v1h1v-1H438.9z
			 M422.9,1072.3c0.3,0,0.5,0.2,0.5,0.5v4v1.5h-1v-5.5C422.4,1072.5,422.6,1072.3,422.9,1072.3z M432.9,1072.3
			c0.3,0,0.5,0.2,0.5,0.5v5.5h-1v-1.5v-4C432.4,1072.5,432.6,1072.3,432.9,1072.3z M426.4,1084.3v2h1v-2H426.4z M426.4,1087.3v1h1
			v-1H426.4z"/>
	</g>
</g>
</svg>
