<?xml version="1.0" encoding="utf-8"?>
<!-- Generator: Adobe Illustrator 24.0.0, SVG Export Plug-In . SVG Version: 6.00 Build 0)  -->
<svg version="1.1" id="Layer_1" xmlns="http://www.w3.org/2000/svg" xmlns:xlink="http://www.w3.org/1999/xlink" x="0px" y="0px"
	 viewBox="0 0 64 64" style="enable-background:new 0 0 64 64;" xml:space="preserve">
<style type="text/css">
	.st0{fill:#FFFFFF;}
</style>
<circle class="st0" cx="12" cy="11" r="1"/>
<circle class="st0" cx="17" cy="11" r="1"/>
<circle class="st0" cx="22" cy="11" r="1"/>
<path class="st0" d="M53,16H7c-0.6,0-1-0.4-1-1s0.4-1,1-1h46c0.6,0,1,0.4,1,1S53.6,16,53,16z M37,44c-0.6,0-1-0.4-1-1v-4
	c0-0.6,0.4-1,1-1s1,0.4,1,1v4C38,43.6,37.6,44,37,44z M55.1,53L55.1,53c0.3,0.3,0.4,0.9,0.1,1.3c-1,1.4-2.3,2.6-3.7,3.5
	C51.4,57.9,51.2,58,51,58c-0.6,0-1-0.5-1-1c0-0.3,0.2-0.6,0.4-0.8c1.2-0.8,2.3-1.8,3.2-3c0.3-0.5,0.9-0.6,1.4-0.3
	C55,52.9,55.1,53,55.1,53z"/>
<path class="st0" d="M58,40.6v5.2c0,1.5-0.2,3.1-0.7,4.5c-0.2,0.5-0.8,0.8-1.3,0.6c-0.1,0-0.3-0.1-0.4-0.2l0,0
	c-0.3-0.3-0.3-0.6-0.2-1c0.4-1.3,0.6-2.6,0.6-3.9v-5.2c0-0.8-0.5-1.5-1.3-1.6c-0.4,0-0.9,0.1-1.2,0.4c-0.3,0.3-0.5,0.7-0.5,1.1
	c0,0.6-0.4,1-1,1s-1-0.4-1-1v-1.9c0-0.8-0.5-1.5-1.3-1.6c-0.4,0-0.9,0.1-1.2,0.4c-0.3,0.3-0.5,0.7-0.5,1.1c0,0.6-0.4,1-1,1
	s-1-0.4-1-1v-0.9c0-0.8-0.5-1.5-1.3-1.6c-0.4,0-0.9,0.1-1.2,0.4c-0.3,0.3-0.5,0.7-0.5,1.1c0,0.6-0.4,1-1,1s-1-0.4-1-1v-9
	c0-0.8-0.7-1.5-1.5-1.5c-0.1,0-0.1,0-0.2,0c-0.8,0.1-1.4,0.8-1.3,1.6V39c0,0.6-0.4,1-1,1s-1-0.4-1-1c0-1.7-1.3-3-3-3
	c0,0-0.1,0-0.1,0c-0.5,0.1-0.9,0.5-0.9,1v8.8c0,4.2,2.1,8.1,5.5,10.4c0.4,0.3,0.5,1,0.2,1.4c-0.3,0.4-0.8,0.5-1.3,0.3
	c-4-2.7-6.4-7.2-6.5-12V37c0-1.6,1.2-2.9,2.8-3c1.1,0,2.3,0.3,3.2,1v-6.4c0-1.8,1.3-3.4,3.1-3.6c1.9-0.2,3.6,1.2,3.8,3.1
	c0,0.1,0,0.3,0,0.4v5.8c0.6-0.3,1.2-0.4,1.9-0.3c1.1,0.1,2,0.7,2.6,1.7c1.5-1.1,3.7-0.8,4.8,0.8c0.2,0.3,0.4,0.7,0.5,1
	c0.6-0.3,1.3-0.5,2.1-0.4C56.7,37.2,58,38.8,58,40.6z M7,28L7,28c-0.6,0-1-0.4-1-1V10c0-2.2,1.8-4,4-4h19c0.6,0,1,0.4,1,1
	s-0.4,1-1,1H10c-1.1,0-2,0.9-2,2v17C8,27.6,7.6,28,7,28z"/>
<path class="st0" d="M32,43c0,0.6-0.4,1-1,1H10c-2.2,0-4-1.8-4-4v-9c0-0.6,0.4-1,1-1l0,0c0.6,0,1,0.4,1,1v9c0,1.1,0.9,2,2,2h21
	C31.6,42,32,42.4,32,43z"/>
<path class="st0" d="M33,6L33,6c0.6,0,1,0.4,1,1l0,0c0,0.6-0.4,1-1,1l0,0c-0.6,0-1-0.4-1-1l0,0C32,6.4,32.4,6,33,6z"/>
<path class="st0" d="M54,10v28.5c0,0.6-0.4,1-1,1s-1-0.4-1-1V10c0-1.1-0.9-2-2-2H37c-0.6,0-1-0.4-1-1l0,0c0-0.6,0.4-1,1-1h13
	C52.2,6,54,7.8,54,10z"/>
<path class="st0" d="M45.3,29H42c-0.6,0-1-0.4-1-1s0.4-1,1-1h3.4c0.4,0,0.9-0.2,1.2-0.5c0.3-0.3,0.5-0.6,0.5-1
	c0-0.9-0.8-1.6-1.7-1.5c0,0-0.1,0-0.1,0h-8.6c-0.4,0-0.9,0.2-1.2,0.5c-0.3,0.3-0.5,0.6-0.5,1c0,0.9,0.8,1.6,1.7,1.5c0,0,0,0,0,0h0.4
	c0.6,0,1,0.4,1,1s-0.4,1-1,1h-0.4c-2,0-3.6-1.5-3.7-3.5c0-1,0.4-1.9,1.1-2.5c0.7-0.6,1.6-1,2.6-1h8.6c2,0,3.6,1.5,3.7,3.5
	c0,1-0.4,1.9-1.1,2.5C47.2,28.6,46.3,29,45.3,29z M29,31H12c-0.6,0-1-0.4-1-1V20c0-0.6,0.4-1,1-1h17c0.6,0,1,0.4,1,1v10
	C30,30.6,29.6,31,29,31z M13,29h15v-8H13V29z M28,35H13c-0.6,0-1-0.4-1-1s0.4-1,1-1h15c0.6,0,1,0.4,1,1S28.6,35,28,35z M22,39h-9
	c-0.6,0-1-0.4-1-1s0.4-1,1-1h9c0.6,0,1,0.4,1,1S22.6,39,22,39z"/>
</svg>
