<?xml version="1.0" encoding="utf-8"?>
<!-- Generator: Adobe Illustrator 24.0.0, SVG Export Plug-In . SVG Version: 6.00 Build 0)  -->
<svg version="1.1" id="Layer_1" xmlns="http://www.w3.org/2000/svg" xmlns:xlink="http://www.w3.org/1999/xlink" x="0px" y="0px"
	 viewBox="0 0 24 24" style="enable-background:new 0 0 24 24;" xml:space="preserve">
<style type="text/css">
	.st0{fill:#DB860B;}
	.st1{fill-rule:evenodd;clip-rule:evenodd;fill:#F6FFDE;}
</style>
<circle class="st0" cx="12" cy="12" r="9.5"/>
<title>Upload Note</title>
<path class="st1" d="M12,6c-0.4,0-0.8,0.2-1,0.5L9.4,8.9c-0.5,0.8,0.1,1.9,1,1.9h0.4v2c0,0.7,0.5,1.2,1.2,1.2s1.2-0.5,1.2-1.2v-2
	h0.4c0.9,0,1.5-1.1,1-1.9L13,6.5C12.8,6.2,12.4,6,12,6z M12,6.8c0.1,0,0.3,0.1,0.3,0.2l1.6,2.4c0.2,0.3,0,0.6-0.3,0.6h-0.8
	c-0.2,0-0.4,0.2-0.4,0.4v2.4c0,0.2-0.2,0.4-0.4,0.4c-0.2,0-0.4-0.2-0.4-0.4v-2.4c0-0.2-0.2-0.4-0.4-0.4h-0.8c-0.3,0-0.5-0.3-0.3-0.6
	L11.7,7C11.7,6.8,11.9,6.8,12,6.8z M7.2,10.8C6.5,10.8,6,11.3,6,12c0,1.3,0.4,2.5,1.1,3.4c0.1,0.2,0.4,0.2,0.6,0.1
	c0.2-0.1,0.2-0.4,0.1-0.6c0,0,0,0,0,0c-0.6-0.8-0.9-1.9-0.9-3c0-0.2,0.2-0.4,0.4-0.4c0.2,0,0.4,0.2,0.4,0.4c0,2.4,2,4.4,4.4,4.4
	s4.4-2,4.4-4.4c0-0.2,0-0.2,0.1-0.3c0.1-0.1,0.2-0.1,0.3-0.1c0.1,0,0.2,0,0.3,0.1c0.1,0.1,0.1,0.1,0.1,0.3c0,2.9-2.3,5.2-5.2,5.2
	c-1.1,0-2.1-0.3-3-0.9c-0.2-0.1-0.4-0.1-0.6,0.1c-0.1,0.2-0.1,0.4,0.1,0.6c0,0,0,0,0,0c1,0.7,2.2,1.1,3.4,1.1c3.3,0,6-2.7,6-6
	c0-0.4-0.2-0.7-0.4-0.9c-0.2-0.2-0.5-0.3-0.8-0.3s-0.6,0.1-0.8,0.3c-0.2,0.2-0.4,0.5-0.4,0.9c0,2-1.6,3.6-3.6,3.6S8.4,14,8.4,12
	C8.4,11.3,7.8,10.8,7.2,10.8z"/>
</svg>
