<?xml version="1.0" encoding="utf-8"?>
<!-- Generator: Adobe Illustrator 24.0.0, SVG Export Plug-In . SVG Version: 6.00 Build 0)  -->
<svg version="1.1" id="Layer_1" xmlns="http://www.w3.org/2000/svg" xmlns:xlink="http://www.w3.org/1999/xlink" x="0px" y="0px"
	 viewBox="0 0 48 48" style="enable-background:new 0 0 48 48;" xml:space="preserve">
<style type="text/css">
	.st0{fill:#1D67B1;}
	.st1{fill:none;stroke:#FFFFFF;stroke-miterlimit:10;}
	.st2{fill:#FFFFFF;}
	.st3{fill-rule:evenodd;clip-rule:evenodd;fill:#FFFFFF;}
</style>
<circle class="st0" cx="24" cy="24" r="24"/>
<circle class="st1" cx="24" cy="24" r="24"/>
<path class="st2" d="M24.3,11.7h-0.9h-0.6l0.1,1.1h0.6h0.9h0.2h0.6l0.1-1.1h-0.6H24.3L24.3,11.7z M26.4,11.8l-0.2,1.1l0.6,0.1l0,0
	l1,0.2l0.6,0.1l0.2-1.1L28,12.1l-1-0.2l0,0l0,0C26.9,11.9,26.4,11.8,26.4,11.8z M21.6,12l-0.6,0.1l-0.6,0.1l0,0l-0.6,0.2l-0.6,0.2
	l0.3,1l0.6-0.2l0.5-0.2l0.6-0.1l0.6-0.1C22,13,21.6,12,21.6,12z M29.8,12.8l-0.5,1l0.6,0.2l0.2,0.1l0,0l0.7,0.5l0.5,0.3l0.6-1
	l-0.5-0.3l-0.7-0.5l0,0L30.3,13L29.8,12.8z M18.4,13.1l-0.5,0.3l-0.7,0.5l0,0L17,14.1l-0.5,0.3l0.7,0.9l0.5-0.3l0.2-0.2l0.7-0.5
	L19,14L18.4,13.1z M32.7,14.7l-0.8,0.8l0.5,0.3l0.3,0.3l0,0l0.3,0.5l0.3,0.5l0.8-0.8l-0.3-0.5l-0.5-0.5l0,0L33.1,15L32.7,14.7z
	 M15.4,15.2l-0.3,0.5l-0.7,0.7l0,0l-0.1,0.2L14,17l0.9,0.7l0.3-0.5l0.1-0.1l0.7-0.7l0.3-0.5L15.4,15.2z M24.5,16.2
	c-0.3,0-0.6,0-0.9,0c-3.6,0.2-6.9,1.4-9.6,2.7l0.2-0.5l-1-0.5l-0.2,0.5l-0.5,1.1l-0.2,0.3c-3.5,2.1-5.8,4.3-5.8,4.3
	c-0.2,0.2-0.2,0.6,0,0.8c0,0,2.3,2.3,5.8,4.4l0.1,0.2l0,0l0.1,0.1l0.2,0.6l0.7-0.3c3,1.7,6.8,3,10.9,3c3.8,0,7.3-1.2,10.3-2.7
	l-0.2,0.3L34,31.1l-0.3,0.5L33.4,32l0.9,0.7l0.3-0.5l0.3-0.5l0,0l0.3-0.5l0.5-0.5l-0.9-0.6c0.5-0.2,0.8-0.5,1.2-0.7l0.2,0.1l0.1-0.3
	c3.6-2.1,5.9-4.4,5.9-4.4c0.2-0.2,0.2-0.6,0-0.8c0,0-2.5-2.5-6.4-4.7l0.3-0.1L36,18.8l-0.1-0.3l0,0l-0.3-0.6l-0.3-0.6l-1,0.6
	l0.3,0.5l0.2,0.5C31.8,17.4,28.3,16.2,24.5,16.2L24.5,16.2z M24.5,17.3c4.1,0,7.3,3.3,7.3,7.3S28.5,32,24.5,32h-0.1
	c-3.9-0.1-7.2-3.3-7.2-7.3S20.4,17.3,24.5,17.3z M29.8,18.1c6.2,1.8,10.7,6,11.3,6.5c-0.6,0.6-5.1,4.7-11.2,6.5
	c1.9-1.6,3.2-3.9,3.2-6.5c0-0.1,0-0.1,0-0.2l0,0C32.8,21.8,31.6,19.6,29.8,18.1L29.8,18.1z M19,18.1c-1.9,1.6-3,3.9-3,6.5
	s1.2,5,3,6.5c-6.2-1.8-10.6-6-11.2-6.5C8.4,24.1,12.9,19.9,19,18.1z M14.2,30.8l-0.9,0.7l0.3,0.5l0.7,0.9l0.3,0.5l0.9-0.7l-0.3-0.5
	l-0.7-0.9C14.5,31.3,14.2,30.8,14.2,30.8z M32.9,32.9l-0.5,0.3l-0.6,0.6L31.7,34l-0.5,0.3l0.7,0.9l0.5-0.3l0.2-0.2l0,0l0.6-0.6
	l0.5-0.3L32.9,32.9z M16.3,33.3l-0.8,0.8l0.5,0.3l0.1,0.1l0,0l0.8,0.6l0.5,0.3l0.7-0.9l-0.5-0.3l-0.8-0.6l-0.1-0.1
	C16.8,33.7,16.3,33.3,16.3,33.3z M30.4,34.9l-0.6,0.2L29,35.6h-0.1l-0.6,0.2l0.3,1l0.6-0.2h0.1l0,0l0.9-0.5l0.5-0.2
	C30.9,35.9,30.4,34.9,30.4,34.9z M18.9,35.1l-0.5,1l0.6,0.2l0.3,0.1l0,0l0.8,0.2l0.6,0.2l0.3-1l-0.6-0.2l-0.7-0.2l-0.3-0.1
	L18.9,35.1z M27.4,36l-0.6,0.1l0,0l-1,0.1l-0.7,0.2l0.2,1.1l0.6-0.1l1-0.1l0,0H27l0.6-0.1C27.6,37.2,27.4,36,27.4,36z M22,36.3
	l-0.2,1.1l0.6,0.1l0.7,0.1h0.1h0.5h0.6l0.1-1.1h-0.6h-0.5l-0.7-0.1L22,36.3L22,36.3z"/>
<path class="st3" d="M20.2,28.4c0.1,0,0.2,0.1,0.2,0.2s-0.1,0.2-0.2,0.2c-0.3,0-0.7-0.1-0.9-0.3c-0.2-0.2-0.3-0.6-0.3-0.9v-4.9
	c0-0.3,0.1-0.7,0.3-0.9s0.5-0.3,0.8-0.3c0.1-0.1,0.2-0.1,0.3-0.1c0.2,0,0.5-0.1,0.7-0.1c0.2,0,0.5,0,0.7,0.1c0.1,0,0.2,0.1,0.3,0.1
	h0.5v-0.8c0-0.1,0.1-0.3,0.1-0.3l0,0l0,0l0,0c0.1-0.1,0.2-0.1,0.3-0.1h3.4c0.1,0,0.3,0.1,0.3,0.1c0.1,0.1,0.1,0.2,0.1,0.3v0.2
	c0,0.1-0.1,0.2-0.2,0.2c-0.1,0-0.2-0.1-0.2-0.2v-0.2l0,0l0,0H23l0,0l0,0l0,0v1.1c0,0.1-0.1,0.2-0.2,0.2H22c-0.2,0,0-0.1-0.3-0.1
	c-0.1,0-0.3,0-0.6,0s-0.5,0-0.6,0C20.2,22,20.4,22,20.2,22c-0.2,0-0.3,0.1-0.5,0.2c-0.1,0.1-0.2,0.3-0.2,0.6v4.9
	c0,0.2,0.1,0.3,0.2,0.6C19.7,28.2,19.9,28.4,20.2,28.4L20.2,28.4z M21.4,22.8c-0.2,0-0.3,0.1-0.3,0.3s0.1,0.3,0.3,0.3
	c0.2,0,0.3-0.1,0.3-0.3C21.7,22.9,21.6,22.8,21.4,22.8L21.4,22.8z M26.9,25c-0.1-0.6-0.3-1.1-0.8-1.6c-0.5-0.5-1.1-0.8-1.8-0.8
	c-0.7,0-1.4,0.3-1.8,0.8c-0.5,0.5-0.8,1.1-0.8,1.8s0.3,1.4,0.8,1.8c0.5,0.5,1.1,0.8,1.8,0.8c0.7,0,1.4-0.3,1.8-0.8
	c0.5-0.5,0.7-0.9,0.8-1.6h2.5v2.1c0,0.2-0.1,0.3-0.2,0.6c-0.1,0.1-0.3,0.2-0.6,0.2h-6.9c-0.1,0-0.2,0.1-0.2,0.2s0.1,0.2,0.2,0.2h6.9
	c0.3,0,0.7-0.1,0.9-0.3c0.2-0.2,0.3-0.6,0.3-0.9v-2.4c0-0.1-0.1-0.2-0.2-0.2H26.9L26.9,25z M24.5,24.3c0.2,0,0.5,0.1,0.7,0.2
	c0.1,0.1,0.2,0.3,0.2,0.7c0,0.2-0.1,0.5-0.2,0.7c-0.1,0.1-0.3,0.2-0.7,0.2c-0.2,0-0.5-0.1-0.7-0.2c-0.1-0.1-0.2-0.3-0.2-0.7
	c0-0.1-0.1-0.2-0.2-0.2s-0.2,0.1-0.2,0.2c0,0.3,0.1,0.7,0.5,1c0.2,0.2,0.6,0.5,1,0.5c0.3,0,0.7-0.1,1-0.5c0.2-0.2,0.5-0.6,0.5-1
	c0-0.3-0.1-0.7-0.5-1c-0.2-0.2-0.6-0.5-1-0.5c-0.1,0-0.2,0.1-0.2,0.2C24.2,24.2,24.3,24.3,24.5,24.3L24.5,24.3z M25.9,23.7
	c-0.3-0.3-0.9-0.6-1.5-0.6s-1.1,0.2-1.5,0.6c-0.3,0.3-0.6,0.9-0.6,1.5s0.2,1.1,0.6,1.5c0.3,0.3,0.9,0.6,1.5,0.6s1.1-0.2,1.5-0.6
	c0.3-0.3,0.6-0.9,0.6-1.5S26.3,24.2,25.9,23.7L25.9,23.7z M26.7,22h2c0.2,0,0.3,0.1,0.6,0.2c0.1,0.1,0.2,0.3,0.2,0.6v1.6
	c0,0.1,0.1,0.2,0.2,0.2s0.2-0.1,0.2-0.2v-1.6c0-0.3-0.1-0.7-0.3-0.9c-0.2-0.2-0.6-0.3-0.9-0.3h-2c-0.1,0-0.2,0.1-0.2,0.2
	C26.5,21.9,26.6,22,26.7,22L26.7,22z M23.9,21c-0.1,0-0.1,0-0.2,0.1l0,0c-0.1,0.1-0.1,0.1-0.1,0.2v0.5c0,0.1,0,0.2,0.1,0.2l0,0l0,0
	l0,0c0.1,0.1,0.1,0.1,0.2,0.1h1.6c0.1,0,0.2,0,0.2-0.1l0,0c0.1-0.1,0.1-0.1,0.1-0.2v-0.6c0-0.1,0-0.2-0.1-0.2
	c-0.1-0.1-0.1-0.1-0.2-0.1L23.9,21L23.9,21z M25.4,21.5h-1.2v0.2h1.2V21.5z"/>
</svg>
